<svg width="25" height="24" viewBox="0 0 25 24" fill="none" xmlns="http://www.w3.org/2000/svg">
<path d="M12.5391 0.00139815C19.2775 -0.0933578 25.1603 5.40249 24.9977 12.252C24.8492 18.4856 19.3552 24.0423 12.2138 23.907C5.70174 23.7851 -0.145716 18.5533 0.00276802 11.6767C0.144182 5.34157 5.65225 -0.100126 12.5391 0.00139815ZM14.3704 22.0592C15.2118 22.0051 15.9967 21.7343 16.7532 21.4162C18.2027 20.8206 19.4613 19.9543 20.5219 18.8308C20.8401 18.4923 21.1441 18.1404 21.3704 17.7275C22.028 16.9492 22.4522 16.0355 22.7562 15.0947C23.2512 13.5718 23.4138 12.0151 23.1522 10.411C22.7987 8.279 21.8724 6.43126 20.3381 4.86102C18.9805 3.47353 17.333 2.53273 15.4239 2.01158C13.9957 1.61902 12.5391 1.49042 11.0755 1.70024C9.74618 1.88975 8.46638 2.262 7.28558 2.90499C6.68457 3.22987 6.10477 3.59535 5.60275 4.04883C3.99064 5.28066 2.90882 6.8509 2.27953 8.71894C2.23004 8.80016 2.19468 8.88815 2.20882 8.98967C2.13105 9.03705 2.13812 9.11827 2.13812 9.19272C2.08862 9.32809 2.02499 9.46345 1.9967 9.60559C1.79165 10.675 1.6361 11.7444 1.77044 12.8408C1.926 14.0659 2.19468 15.2436 2.76034 16.3536C3.55225 17.89 4.627 19.1759 6.08356 20.2115C7.97851 21.5584 10.0997 22.181 12.433 22.2623C13.0977 22.2893 13.734 22.1472 14.3704 22.0592Z" fill="#D6DAEC"/>
<path d="M5.60181 4.06177C6.1109 3.6083 6.68362 3.24281 7.28463 2.91794C8.46543 2.27495 9.74522 1.9027 11.0745 1.71319C12.5381 1.50337 13.9947 1.63197 15.423 2.02453C17.3321 2.54568 18.9795 3.48647 20.3371 4.87397C21.8714 6.44421 22.7977 8.29194 23.1512 10.4239C23.4199 12.028 23.2502 13.5847 22.7553 15.1076C22.4512 16.0484 22.0341 16.9553 21.3694 17.7404C21.3623 17.7337 21.3411 17.7201 21.3411 17.7201C21.6169 16.9756 20.9452 16.6101 20.5634 16.2244C20.2169 15.8724 19.8209 15.4528 19.2694 15.3039C19.0573 15.243 19.0432 15.0941 19.2482 14.9655C19.3401 14.9045 19.4957 14.8504 19.4108 14.715C19.3189 14.5594 19.1987 14.6677 19.0856 14.7286C18.9512 14.803 18.824 14.7624 18.7462 14.6473C18.626 14.4714 18.831 14.4849 18.9017 14.424C19.0078 14.336 19.1987 14.2819 19.0361 14.0923C19.1492 13.9096 19.1421 13.7404 18.9371 13.6456C18.7391 13.5509 18.5836 13.6389 18.4846 13.8216C18.4068 13.8284 18.2866 13.8081 18.2583 13.8487C18.025 14.1262 17.9755 13.9164 17.9048 13.7404C18.2371 13.0771 18.4775 12.3867 18.4775 11.6422C18.4775 11.4798 18.5694 11.358 18.7674 11.3783C18.9512 11.3918 19.029 11.5069 19.0432 11.6693C19.0644 11.9671 19.0007 12.2514 18.9371 12.5356C18.8876 12.7522 18.9512 12.9011 19.1704 12.9553C19.3896 13.0162 19.4957 12.8605 19.5381 12.6913C19.63 12.3191 19.6937 11.94 19.6583 11.5542C19.6088 11.0534 19.2199 10.7488 18.6967 10.7624C18.2159 10.7759 17.8553 11.1278 17.8482 11.6219C17.8482 11.8859 17.8199 12.1431 17.7563 12.3935C17.5937 13.0771 17.2755 13.6795 16.6957 14.2142C16.6957 13.578 16.6957 13.0027 16.6957 12.4274C16.6957 11.6152 16.3704 11.3038 15.522 11.3174C15.4159 11.2564 15.1472 11.4189 15.1967 11.1752C15.2462 10.9045 15.0836 10.8097 14.9139 10.715C14.8078 10.6541 14.723 10.6067 14.7088 10.4781C14.829 10.2006 15.0765 10.2141 15.3311 10.2209C16.2927 10.2412 17.1058 9.95017 17.7209 9.21919C18.2583 8.58298 18.2866 7.83847 18.2583 7.07365C18.2371 6.55927 17.8977 6.22762 17.3674 6.23439C16.8442 6.23439 16.4906 6.5728 16.4836 7.08719C16.4836 7.2564 16.4906 7.4256 16.4836 7.59481C16.4694 7.86554 16.3917 8.10243 16.1583 8.27841C16.0805 8.33932 15.9886 8.44084 15.8826 8.37993C15.7977 8.32578 15.8401 8.21072 15.8543 8.1295C15.9745 7.35792 15.8967 6.57957 15.9109 5.80122C15.9179 5.32067 15.5502 4.94842 15.0765 4.90781C14.6381 4.8672 14.1856 5.17854 14.1361 5.63878C14.0937 6.03134 14.0442 6.26823 13.5351 6.28854C13.1321 6.30207 12.8775 6.76231 12.9341 7.15487C12.9977 7.62188 13.3018 7.91292 13.7543 7.93322C13.9098 7.93999 14.1008 7.88585 14.0159 8.16335C13.7189 9.10414 13.0897 9.73358 12.121 10.0652C11.9654 10.1194 11.9088 10.0788 11.8876 9.9231C11.824 9.47639 11.7462 9.03645 11.7462 8.58298C11.7533 7.65573 11.7533 6.73524 11.7462 5.80799C11.7462 5.28683 11.3644 4.90104 10.8624 4.90104C10.3533 4.90104 9.97855 5.27329 9.97855 5.79445C9.97855 6.4036 9.96441 7.01274 9.98563 7.62188C9.9927 7.89938 9.85835 7.94676 9.61795 7.92646C9.19371 7.88585 8.86139 7.54067 8.79068 7.08042C8.69876 6.48482 8.48664 6.28854 7.86442 6.22085C7.87149 6.1464 7.90685 6.07872 7.97755 6.06518C8.17553 6.03811 8.37351 6.03134 8.57149 6.00427C8.63513 5.9975 8.72705 5.9975 8.74826 5.91628C8.77654 5.82152 8.68462 5.78092 8.62099 5.73354C8.37351 5.56433 8.16846 5.63878 7.96341 5.82152C7.90684 5.87567 7.79372 5.95689 7.70887 5.87567C7.60988 5.77415 7.75129 5.72 7.80786 5.66585C7.89978 5.56433 8.00584 5.45604 7.86442 5.35451C7.58867 5.15147 7.3624 4.86043 7.01594 4.77244C6.73311 4.69799 6.61291 4.48818 6.39372 4.34604C6.49271 4.27836 6.55635 4.2919 6.62705 4.3122C6.69069 4.33251 6.75433 4.37312 6.82503 4.31897C6.8816 4.21068 6.7614 4.1633 6.73311 4.08208C6.59877 3.68952 6.46443 3.64214 6.17453 3.91287C6.00483 4.05501 5.81393 4.06854 5.60181 4.06177Z" fill="#BABBDB"/>
<path d="M2.20784 9.00293C2.20077 8.9014 2.22906 8.81342 2.27855 8.7322C2.63208 8.61037 2.92198 8.65775 3.09875 9.01646C3.19067 9.19244 3.37451 9.25335 3.56541 9.27366C3.89067 9.3075 4.0745 9.47671 4.10986 9.78805C4.13107 9.96402 4.18056 10.14 4.34319 10.2212C4.71794 10.404 4.78864 10.9048 5.24117 11.0063C5.26238 11.0131 5.26945 11.0402 5.28359 11.0605C5.60884 11.4801 5.8846 11.5613 6.37955 11.3786C6.49268 11.8456 6.49268 11.8456 6.01894 11.893C5.55935 11.9404 5.17046 12.3465 5.1846 12.7593C5.20581 13.2263 5.57349 13.5918 6.06137 13.6121C6.21692 13.6189 6.37248 13.6324 6.52096 13.6121C6.86743 13.558 7.05833 13.6866 7.1856 13.9979C7.28459 14.2348 7.44722 14.4514 7.62399 14.6477C7.82197 14.8778 7.71591 14.9455 7.48965 15.0402C6.81086 15.3245 6.09672 15.311 5.37551 15.311C4.80278 15.311 4.46339 15.6291 4.46339 16.157C4.46339 16.6849 4.80278 16.9963 5.38258 16.9963C5.75733 16.9963 6.13914 16.9963 6.51389 16.9963C7.10076 16.9963 7.65227 16.8541 8.18257 16.6308C8.52197 16.4886 8.84015 16.157 9.17247 16.157C9.50479 16.157 9.83004 16.4616 10.1694 16.6172C11.0108 17.0166 11.4634 17.7002 11.6826 18.5462C11.7462 18.8034 11.6543 18.9049 11.3573 18.8981C10.827 18.8778 10.2967 18.8981 9.76641 18.8914C9.54721 18.8914 9.37045 18.9523 9.37752 19.1756C9.38459 19.4058 9.56843 19.4599 9.78055 19.4464C9.87247 19.4396 9.97146 19.4464 10.0634 19.4464C11.124 19.4531 12.1775 19.4599 13.2381 19.4667C13.1603 19.6697 12.9765 19.5547 12.8422 19.5817C12.7361 19.5953 12.6088 19.5682 12.5664 19.6833C12.5169 19.8051 12.6442 19.8592 12.7149 19.9269C12.8422 20.042 13.0048 20.13 13.1108 20.2586C13.422 20.6308 13.7613 20.9625 14.1502 21.2535C14.426 21.4566 14.5179 21.8288 14.3694 22.0928C13.726 22.1808 13.0967 22.3229 12.4321 22.3026C10.0987 22.2281 7.97752 21.6055 6.08258 20.2518C4.63309 19.223 3.55127 17.9303 2.75936 16.3939C2.18663 15.2839 1.91794 14.1062 1.76946 12.8812C1.63512 11.7847 1.79067 10.7153 1.99572 9.64591C2.02401 9.50378 2.08764 9.36842 2.13714 9.23305C2.29269 9.1789 2.32804 9.11122 2.20784 9.00293Z" fill="#A1CCE9"/>
<path d="M14.3693 22.0591C14.5178 21.7951 14.433 21.4229 14.1501 21.2198C13.7542 20.9288 13.4148 20.5971 13.1107 20.2249C13.0047 20.0963 12.8421 20.0083 12.7148 19.8932C12.6441 19.8255 12.5168 19.7714 12.5663 19.6496C12.6087 19.5345 12.7431 19.5616 12.8421 19.548C12.9764 19.5277 13.1602 19.636 13.238 19.433C13.9946 19.4262 14.7441 19.4194 15.5006 19.4194C15.7057 19.4194 15.9037 19.3924 15.9107 19.1555C15.9178 18.8983 15.7128 18.8644 15.4936 18.8644C14.9491 18.8712 14.4117 18.8509 13.8673 18.8712C13.5633 18.8847 13.4926 18.7494 13.535 18.5057C13.6198 18.0184 13.7966 17.5785 14.1996 17.2333C14.5673 16.9152 15.0269 16.8813 15.4724 16.7933C15.734 16.7392 15.833 17.0099 16.0239 17.1114C16.2289 17.2197 16.4269 17.3348 16.6532 17.416C17.2895 17.6529 17.9542 17.5717 18.6047 17.5785C19.2127 17.5852 19.6582 17.1994 19.6582 16.6783C19.6582 16.2316 19.1845 15.839 18.6188 15.8322C18.2865 15.8255 17.9471 15.8322 17.6077 15.8322C17.6077 15.7036 17.6925 15.6698 17.7562 15.6224C17.9612 15.4735 18.1592 15.3111 18.2865 15.0877C18.3713 14.9321 18.3713 14.7831 18.2087 14.6681C18.0532 14.5598 17.9188 14.6275 17.8057 14.7425C17.4804 15.0674 17.141 15.3788 16.7451 15.6292C16.4552 15.8187 16.4835 16.0759 16.8087 16.2316C17.0633 16.3602 17.3319 16.4346 17.6218 16.4346C17.9754 16.4278 18.3289 16.4346 18.6824 16.4346C18.8875 16.4346 19.0431 16.5091 19.0289 16.7257C19.0218 16.9152 18.8663 16.9828 18.6824 16.9761C18.3855 16.9761 18.0956 16.9625 17.7986 16.9761C17.0986 17.0167 16.5047 16.8069 16.0309 16.2992C15.9461 16.2113 15.8612 16.1368 15.7269 16.1571C14.9208 16.2586 14.1077 16.3602 13.535 17.0167C13.139 17.4702 12.9481 18.0116 12.9128 18.6005C12.8986 18.8374 12.7926 18.8644 12.5804 18.8712C12.34 18.878 12.34 18.7561 12.3047 18.5802C12.1279 17.5378 11.6118 16.6918 10.636 16.1639C10.2188 15.9405 9.77338 15.751 9.37742 15.4803C9.22187 15.372 9.06631 15.4058 8.91076 15.4803C8.79763 15.4803 8.69156 15.5074 8.57843 15.5547C8.38045 15.6292 8.21076 15.5886 8.20369 15.3314C8.24611 15.3111 8.28147 15.2908 8.32389 15.2705C8.35924 15.2434 8.38752 15.2231 8.42288 15.196C8.4653 15.1554 8.50773 15.1148 8.55015 15.0742C8.66328 15.02 8.65621 14.9524 8.57843 14.8779C8.18248 14.3094 7.72288 13.7814 7.44005 13.1385C7.37642 13.0031 7.22086 12.9828 7.07238 12.9828C6.76834 12.9828 6.45723 12.976 6.15319 12.9828C5.96228 12.9895 5.84915 12.888 5.83501 12.7324C5.82087 12.5564 5.95521 12.4616 6.11784 12.4481C6.31581 12.4345 6.52086 12.4413 6.71884 12.4413C7.06531 12.4345 7.15723 12.3263 7.10066 12.0014C7.01581 11.5208 7.00167 11.0403 7.00874 10.553C7.01581 10.3634 7.06531 10.201 7.29157 10.201C7.51783 10.201 7.5744 10.3567 7.5744 10.5462C7.58147 10.9591 7.56026 11.3787 7.63803 11.7916C7.97743 13.5445 8.98147 14.8102 10.6714 15.5615C11.0815 15.7442 11.4916 15.6698 11.8239 15.3991C12.1421 15.1486 12.2835 14.7899 12.2128 14.4041C12.1491 14.0386 12.0219 13.6867 11.9299 13.328C11.8592 13.0572 11.6825 12.9692 11.4138 12.976C11.039 12.9828 10.6572 12.9828 10.2825 12.976C10.1057 12.976 9.99257 12.888 9.97843 12.712C9.97136 12.5428 10.0986 12.4684 10.2471 12.4481C10.4239 12.4278 10.6007 12.4345 10.7774 12.4345C11.435 12.4345 11.5057 12.3195 11.237 11.7374C10.9118 11.0335 10.7209 10.289 10.6219 9.53095C10.5582 9.0504 10.5582 9.03686 10.0421 9.03009C9.95015 9.03009 9.85116 9.03009 9.75924 9.03009C8.635 9.01656 7.82187 8.35326 7.61682 7.29741C7.56733 7.06052 7.58854 6.82363 7.85722 6.78302C8.13298 6.73564 8.18248 6.98606 8.20369 7.19588C8.24611 7.58844 8.42288 7.89978 8.73399 8.15698C9.13702 8.4954 9.6249 8.44802 10.1057 8.46155C10.438 8.46832 10.5724 8.37357 10.5582 8.03515C10.537 7.31094 10.5512 6.5935 10.5512 5.86929C10.5512 5.67978 10.5865 5.4835 10.834 5.47673C11.0744 5.46996 11.131 5.66625 11.1592 5.84899C11.1734 5.93698 11.1663 6.03173 11.1663 6.11972C11.1663 6.9996 11.1734 7.87948 11.1663 8.75936C11.1592 9.28052 11.2299 9.79491 11.3501 10.2958C11.4421 10.6951 11.5552 10.756 11.9724 10.6748C12.6865 10.5394 13.2804 10.1942 13.8037 9.71369C13.8602 9.88967 13.8673 10.0792 14.037 10.2078C13.6198 10.6409 13.1037 10.9117 12.5239 11.0944C12.0784 11.2366 11.8592 11.7171 12.0643 12.1164C12.4885 12.9557 12.7501 13.8356 12.8845 14.7561C12.9623 15.2569 13.2663 15.5683 13.74 15.7375C14.2067 15.9067 14.6663 15.7442 15.133 15.6969C15.4229 15.6698 15.5218 15.5141 15.5218 15.2366C15.5077 14.2688 15.5219 13.3009 15.5148 12.3263C15.5148 12.1164 15.5077 11.8795 15.8117 11.8863C16.0875 11.8931 16.0804 12.1164 16.0804 12.3127C16.0804 13.1046 16.0804 13.8897 16.0804 14.6816C16.0804 14.8441 16.0734 15.0065 16.2501 15.0945C16.4269 15.1825 16.5542 15.081 16.6956 14.9862C17.2047 14.641 17.5511 14.1605 17.9117 13.6935C17.9824 13.8694 18.0319 14.0792 18.2653 13.8017C18.3006 13.7611 18.4138 13.7814 18.4915 13.7747C18.5481 14.1199 18.6612 14.174 19.0431 14.0454C19.2127 14.2349 19.0148 14.2891 18.9087 14.3771C18.838 14.438 18.633 14.4312 18.7532 14.6004C18.838 14.7155 18.9582 14.7561 19.0925 14.6816C19.2057 14.6207 19.3259 14.5056 19.4178 14.6681C19.4956 14.8035 19.3471 14.8576 19.2552 14.9185C19.0501 15.0471 19.0643 15.2028 19.2764 15.2569C19.835 15.4058 20.2239 15.8255 20.5703 16.1774C20.9521 16.5632 21.6239 16.9287 21.3481 17.6732C21.3481 17.68 21.3622 17.6868 21.3764 17.6935C21.1501 18.0996 20.8531 18.4583 20.5279 18.7968C19.4673 19.9203 18.2087 20.7866 16.7592 21.3822C15.9956 21.7342 15.2107 22.0049 14.3693 22.0591Z" fill="#AFC3E2"/>
<path d="M6.38664 11.3645C5.89169 11.5472 5.61594 11.4727 5.29068 11.0463C5.27654 11.026 5.2624 10.999 5.24826 10.9922C4.79574 10.8907 4.7321 10.3966 4.35028 10.2071C4.18766 10.1259 4.13816 9.94989 4.11695 9.77391C4.0816 9.4558 3.89776 9.29336 3.57251 9.25952C3.3816 9.23921 3.19069 9.1783 3.10584 9.00232C2.92201 8.64361 2.63918 8.59623 2.28564 8.71806C2.91494 6.85001 3.99675 5.27977 5.60886 4.04794C5.82098 4.05471 6.01189 4.04794 6.18866 3.87873C6.48563 3.60123 6.6129 3.65538 6.74725 4.04794C6.77553 4.12916 6.89573 4.17654 6.83916 4.28483C6.76846 4.33897 6.70482 4.29836 6.64119 4.27806C6.57048 4.25776 6.50684 4.24422 6.40785 4.3119C6.62704 4.45404 6.74725 4.67062 7.03007 4.7383C7.37654 4.82629 7.6028 5.11733 7.87856 5.32038C8.01997 5.4219 7.90683 5.53696 7.82199 5.63172C7.76542 5.69263 7.63108 5.74678 7.723 5.84153C7.80078 5.92275 7.91391 5.84153 7.97754 5.78739C8.18259 5.60464 8.38764 5.53019 8.63512 5.6994C8.69875 5.74001 8.79067 5.78739 8.76239 5.88214C8.74118 5.95659 8.64926 5.96336 8.58562 5.97013C8.38764 5.99721 8.18966 6.00397 7.99168 6.03105C7.92098 6.04458 7.88563 6.11903 7.87856 6.18672C7.40482 6.24086 7.08664 6.48452 7.03714 6.86355C7.00179 7.12074 7.00886 7.37794 7.0725 7.63513C7.39775 8.93464 8.64926 9.67239 9.68865 9.59793C9.94319 9.57763 10.0493 9.64531 10.0846 9.92281C10.1553 10.4575 10.2755 10.9854 10.4876 11.4863C10.5866 11.7299 10.5796 11.8315 10.2543 11.8518C9.75228 11.8788 9.39875 12.2511 9.37047 12.6707C9.34218 13.0633 9.63208 13.4626 10.0422 13.5574C10.2189 13.598 10.4169 13.5845 10.6008 13.5912C11.428 13.5912 11.428 13.5912 11.6048 14.3628C11.6543 14.5862 11.6402 14.7892 11.4492 14.9517C11.2513 15.1209 11.0462 15.0735 10.827 14.9787C9.98561 14.5929 9.33511 14.0109 8.85431 13.246C8.33108 12.4068 8.17552 11.4863 8.21795 10.5184C8.23916 9.9905 7.85734 9.61147 7.35532 9.59793C6.82502 9.57763 6.42906 9.93635 6.40078 10.4778C6.37957 10.7824 6.38664 11.0734 6.38664 11.3645Z" fill="#AFC3E2"/>
<path d="M2.20793 9.00293C2.32815 9.11098 2.29279 9.17851 2.13721 9.20552C2.14428 9.13124 2.13014 9.0502 2.20793 9.00293Z" fill="#AFC3E2"/>
<path d="M6.38661 11.3648C6.38661 11.0738 6.37246 10.776 6.38661 10.4849C6.41489 9.94348 6.81085 9.58476 7.34115 9.60506C7.85024 9.62537 8.23206 10.0044 8.20377 10.5256C8.16135 11.4934 8.31691 12.4071 8.84014 13.2532C9.32094 14.018 9.97145 14.6001 10.8129 14.9859C11.025 15.0806 11.2371 15.128 11.4351 14.9588C11.626 14.7963 11.6401 14.5933 11.5906 14.3699C11.4139 13.6051 11.4209 13.6051 10.5866 13.5984C10.4028 13.5984 10.2048 13.6119 10.028 13.5645C9.61791 13.4698 9.32801 13.0704 9.3563 12.6779C9.38458 12.2582 9.74518 11.8927 10.2401 11.8589C10.5725 11.8386 10.5795 11.7371 10.4735 11.4934C10.2613 10.9926 10.1341 10.4579 10.0704 9.92994C10.0351 9.65244 9.92902 9.59153 9.67448 9.60506C8.63509 9.67952 7.38357 8.94177 7.05832 7.64226C6.99469 7.38506 6.98761 7.12787 7.02297 6.87067C7.07246 6.48488 7.39065 6.24799 7.86438 6.19384C8.4866 6.26152 8.69872 6.45781 8.79064 7.05342C8.86135 7.51366 9.19367 7.85884 9.61791 7.89945C9.85832 7.92653 9.99266 7.87915 9.98559 7.59488C9.97145 6.98573 9.97852 6.37659 9.97852 5.76744C9.97852 5.24628 10.3533 4.87402 10.8624 4.87402C11.3644 4.87402 11.7462 5.25982 11.7462 5.78098C11.7462 6.70823 11.7533 7.62872 11.7462 8.55598C11.7462 9.00945 11.824 9.44939 11.8876 9.8961C11.9088 10.045 11.9654 10.0924 12.1209 10.0382C13.0896 9.70659 13.7189 9.07714 14.0159 8.13634C14.1007 7.85884 13.9098 7.91976 13.7543 7.90622C13.2947 7.87915 12.9977 7.59488 12.9341 7.12787C12.8775 6.73531 13.132 6.28183 13.5351 6.26152C14.0512 6.24122 14.1007 6.00433 14.1361 5.61177C14.1856 5.15152 14.6381 4.84018 15.0765 4.88079C15.5502 4.9214 15.9179 5.28689 15.9108 5.77421C15.9038 6.55256 15.9745 7.33092 15.8543 8.1025C15.8401 8.18372 15.7977 8.30555 15.8825 8.35293C15.9886 8.41384 16.0805 8.31909 16.1583 8.2514C16.3916 8.07543 16.4694 7.83177 16.4836 7.56781C16.4906 7.3986 16.4836 7.22939 16.4836 7.06018C16.4906 6.54579 16.8442 6.21415 17.3674 6.20738C17.9048 6.20738 18.2371 6.53226 18.2583 7.04665C18.2866 7.81147 18.2583 8.55598 17.7209 9.1922C17.0987 9.92317 16.2856 10.221 15.331 10.1939C15.0765 10.1871 14.829 10.1804 14.7088 10.4511C14.1785 10.9181 13.6199 11.3513 12.927 11.5814C12.6088 11.6829 12.5593 11.8251 12.7078 12.1026C13.0826 12.82 13.2876 13.5984 13.429 14.3903C13.5563 15.1212 13.726 15.2566 14.5038 15.2092C14.7583 15.1957 14.8785 15.1145 14.8714 14.8437C14.8502 14.0315 14.8785 13.2193 14.8573 12.4071C14.8432 11.8927 14.9987 11.507 15.5219 11.2904C16.3704 11.2768 16.6957 11.5814 16.6957 12.4004C16.6957 12.9757 16.6957 13.5442 16.6957 14.1872C17.2684 13.6525 17.5866 13.0434 17.7563 12.3665C17.8199 12.1161 17.8411 11.8589 17.8482 11.5949C17.8553 11.1009 18.2088 10.7489 18.6967 10.7354C19.2199 10.7218 19.6088 11.0264 19.6583 11.5273C19.6937 11.9063 19.63 12.2921 19.5381 12.6643C19.4957 12.8403 19.3896 12.9892 19.1704 12.9283C18.9583 12.8742 18.8947 12.7252 18.9371 12.5087C19.0007 12.2244 19.0573 11.9334 19.0431 11.6423C19.0361 11.4731 18.9512 11.3648 18.7674 11.3513C18.5694 11.3377 18.4775 11.4528 18.4775 11.6152C18.4775 12.3665 18.2371 13.0501 17.9048 13.7134C17.5442 14.1804 17.1977 14.6677 16.6886 15.0062C16.5472 15.1009 16.4199 15.1957 16.2432 15.1145C16.0664 15.0265 16.0735 14.864 16.0735 14.7016C16.0735 13.9097 16.0735 13.1246 16.0735 12.3327C16.0735 12.1364 16.0735 11.9131 15.8048 11.9063C15.5007 11.8995 15.5078 12.1364 15.5078 12.3462C15.5078 13.3141 15.5007 14.282 15.5149 15.2566C15.5149 15.5273 15.423 15.683 15.126 15.7168C14.6664 15.7642 14.1997 15.9199 13.7331 15.7574C13.2593 15.5882 12.9553 15.2769 12.8775 14.776C12.7361 13.8556 12.4815 12.9757 12.0573 12.1364C11.8523 11.7371 12.0785 11.2498 12.5169 11.1144C13.0967 10.9316 13.6129 10.6542 14.03 10.2277C14.4048 9.7675 14.8432 9.54415 15.5007 9.5983C16.7169 9.69305 17.8623 8.74549 17.6785 7.09403C17.6573 6.93835 17.5583 6.80299 17.3886 6.80299C17.2189 6.80299 17.1058 6.92482 17.0916 7.08726C17.0704 7.26323 17.0775 7.44598 17.0704 7.62872C17.0634 8.48153 16.4482 9.07714 15.5573 9.07037C15.1118 9.07037 15.0129 8.94177 15.1331 8.5289C15.4088 7.62195 15.2533 6.6947 15.2815 5.77421C15.2886 5.605 15.1684 5.49671 14.9916 5.49671C14.8149 5.50348 14.723 5.6253 14.723 5.79451C14.7159 5.92988 14.723 6.06524 14.723 6.20061C14.723 6.77592 14.723 6.78268 14.1078 6.78268C13.8533 6.78268 13.5351 6.77592 13.5563 7.09403C13.5704 7.3986 13.8957 7.37153 14.1502 7.37153C14.1644 7.37153 14.1714 7.37153 14.1856 7.37153C14.6664 7.33768 14.7724 7.46628 14.6947 7.94006C14.5886 8.63043 14.2634 9.21927 13.8038 9.7472C13.2805 10.221 12.6866 10.5662 11.9725 10.7083C11.5553 10.7895 11.4422 10.7286 11.3502 10.3293C11.2371 9.82165 11.1664 9.31403 11.1664 8.79287C11.1735 7.91299 11.1664 7.03311 11.1664 6.15323C11.1664 6.06524 11.1735 5.97049 11.1593 5.8825C11.131 5.69976 11.0745 5.50348 10.8341 5.51024C10.5866 5.51701 10.5512 5.71329 10.5512 5.9028C10.5442 6.62701 10.5371 7.34445 10.5583 8.06866C10.5654 8.40031 10.431 8.50183 10.1058 8.49506C9.62499 8.48153 9.13711 8.5289 8.73408 8.19049C8.43004 7.93329 8.2462 7.62195 8.20377 7.22939C8.18256 7.01957 8.13307 6.76915 7.85731 6.81653C7.58862 6.85713 7.57448 7.10079 7.61691 7.33092C7.82196 8.39354 8.63509 9.05006 9.75933 9.0636C9.85125 9.0636 9.95024 9.0636 10.0422 9.0636C10.5583 9.0636 10.5583 9.0839 10.622 9.56445C10.7209 10.3225 10.9119 11.067 11.2371 11.7709C11.5058 12.353 11.4351 12.4681 10.7775 12.4681C10.6007 12.4681 10.424 12.4613 10.2472 12.4816C10.1058 12.5019 9.97145 12.5763 9.97852 12.7456C9.98559 12.9215 10.1058 13.0095 10.2826 13.0095C10.6573 13.0095 11.0391 13.0163 11.4139 13.0095C11.6826 13.0027 11.8664 13.0907 11.93 13.3615C12.0219 13.7202 12.1492 14.0789 12.2129 14.4376C12.2836 14.8302 12.1422 15.1821 11.824 15.4326C11.4846 15.7033 11.0815 15.7778 10.6714 15.595C8.98155 14.8437 7.97751 13.5848 7.63812 11.8251C7.56034 11.4122 7.57448 10.9926 7.57448 10.5797C7.57448 10.3902 7.51792 10.2277 7.29165 10.2345C7.06539 10.2345 7.0159 10.397 7.00883 10.5865C7.00176 11.0738 7.0159 11.5543 7.10075 12.0349C7.15731 12.3598 7.06539 12.4681 6.71893 12.4748C6.52095 12.4816 6.3159 12.4681 6.11792 12.4816C5.94822 12.4951 5.81388 12.5899 5.83509 12.7659C5.84923 12.9283 5.96237 13.0231 6.15327 13.0163C6.45731 13.0095 6.76842 13.0163 7.07246 13.0163C7.22095 13.0163 7.3765 13.0298 7.44014 13.172C7.72297 13.8149 8.18256 14.3429 8.57852 14.9114C8.57145 14.9791 8.56438 15.0468 8.55024 15.1077C8.50782 15.1483 8.46539 15.1889 8.42296 15.2295C8.38761 15.2566 8.35933 15.2769 8.32398 15.304C8.28155 15.3243 8.2462 15.3446 8.20377 15.3649C7.36236 15.8319 6.44317 15.947 5.48863 15.9063C5.27651 15.8996 5.04317 15.9131 5.05025 16.1703C5.05732 16.3937 5.26236 16.4613 5.48863 16.4681C5.96236 16.4817 6.42903 16.4681 6.8957 16.3937C7.64519 16.2718 8.33812 16.0214 8.91084 15.5206C9.0664 15.4461 9.21488 15.4123 9.37751 15.5206C9.77347 15.7913 10.2119 15.974 10.6361 16.2042C11.6119 16.7321 12.128 17.5781 12.3048 18.6204C12.3331 18.7964 12.3401 18.9182 12.5805 18.9115C12.7856 18.9047 12.8987 18.8776 12.9129 18.6407C12.9482 18.0587 13.132 17.5172 13.5351 17.057C14.1078 16.4072 14.9139 16.3057 15.727 16.1974C15.8613 16.1838 15.9462 16.2515 16.031 16.3395C16.5048 16.8471 17.0987 17.0502 17.7987 17.0163C18.0886 17.0028 18.3856 17.0096 18.6825 17.0163C18.8735 17.0163 19.0219 16.9554 19.029 16.7659C19.0361 16.5561 18.8876 16.4749 18.6825 16.4749C18.329 16.4749 17.9755 16.4681 17.6219 16.4749C17.332 16.4817 17.0634 16.4004 16.8088 16.2718C16.4906 16.1094 16.4553 15.859 16.7452 15.6695C17.1411 15.4123 17.4805 15.1077 17.8058 14.7828C17.9189 14.6678 18.0532 14.6001 18.2088 14.7084C18.3714 14.8234 18.3714 14.9723 18.2866 15.128C18.1593 15.3513 17.9613 15.5138 17.7563 15.6627C17.6926 15.7101 17.6078 15.7371 17.6078 15.8725C17.9472 15.8725 18.2795 15.8725 18.6189 15.8725C19.1846 15.8793 19.6583 16.2718 19.6583 16.7185C19.6512 17.2397 19.2128 17.6255 18.6048 17.6187C17.9472 17.612 17.2825 17.6932 16.6533 17.4563C16.4341 17.3751 16.2361 17.26 16.024 17.1517C15.8331 17.0502 15.7341 16.7795 15.4724 16.8336C15.027 16.9284 14.5674 16.9622 14.1997 17.2735C13.8038 17.6187 13.6199 18.0587 13.5351 18.546C13.4927 18.7896 13.5634 18.925 13.8674 18.9115C14.4048 18.8912 14.9492 18.9115 15.4937 18.9047C15.7128 18.9047 15.9179 18.9385 15.9108 19.1957C15.9038 19.4326 15.7129 19.4597 15.5007 19.4597C14.7442 19.4597 13.9947 19.4665 13.2381 19.4732C12.1775 19.4665 11.124 19.4597 10.0634 19.4529C9.97145 19.4529 9.87246 19.4462 9.78054 19.4529C9.56842 19.4665 9.38458 19.4123 9.37751 19.1822C9.37044 18.9589 9.5472 18.8979 9.7664 18.8979C10.2967 18.9047 10.827 18.8844 11.3573 18.9047C11.6543 18.9182 11.7462 18.8099 11.6826 18.5528C11.4634 17.7067 11.0179 17.0231 10.1694 16.6238C9.8371 16.4613 9.50478 16.1568 9.17246 16.1635C8.84014 16.1635 8.52903 16.4952 8.18256 16.6373C7.65226 16.8607 7.10075 17.0096 6.51388 17.0028C6.13913 17.0028 5.75731 17.0028 5.38257 17.0028C4.80277 16.996 4.46338 16.6847 4.46338 16.1635C4.46338 15.6356 4.80277 15.3175 5.3755 15.3175C6.09671 15.3175 6.81085 15.331 7.48964 15.0468C7.7159 14.952 7.82196 14.8776 7.62398 14.6542C7.45428 14.4579 7.29165 14.2346 7.18559 14.0045C7.05125 13.6999 6.86741 13.5645 6.52095 13.6187C6.37247 13.639 6.21691 13.6254 6.06136 13.6187C5.57348 13.5984 5.19873 13.2329 5.18459 12.7659C5.17045 12.353 5.55933 11.9469 6.01893 11.8995C6.49974 11.8318 6.49974 11.8318 6.38661 11.3648Z" fill="#665EA7"/>
<path d="M15.529 11.3119C15.0129 11.5217 14.8573 11.9143 14.8644 12.4287C14.8856 13.2409 14.8573 14.0531 14.8785 14.8653C14.8856 15.1428 14.7654 15.2173 14.5108 15.2308C13.7331 15.2782 13.5704 15.1428 13.4361 14.4118C13.2947 13.6199 13.0896 12.8483 12.7149 12.1241C12.5664 11.8466 12.6159 11.7045 12.9341 11.603C13.627 11.3728 14.1856 10.9397 14.7159 10.4727C14.723 10.6013 14.8078 10.6486 14.9209 10.7095C15.0906 10.8043 15.2533 10.8991 15.2038 11.1698C15.1543 11.4135 15.423 11.2442 15.529 11.3119ZM15.0482 11.3525C15.027 11.3458 15.0058 11.339 14.9917 11.3255C14.9846 11.3458 14.9634 11.3661 14.9704 11.3796C14.9775 11.3932 15.0058 11.3999 15.027 11.4067C15.0341 11.3864 15.0411 11.3728 15.0482 11.3525Z" fill="#AFC3E2"/>
<path d="M19.0359 14.0792C18.6541 14.2078 18.5409 14.1536 18.4844 13.8084C18.5834 13.6189 18.7389 13.5377 18.9369 13.6325C19.149 13.7272 19.149 13.8964 19.0359 14.0792Z" fill="#665EA7"/>
<path d="M13.8038 9.73422C14.2634 9.20629 14.5887 8.61744 14.6948 7.92707C14.7725 7.45328 14.6665 7.32468 14.1857 7.35852C14.1715 7.35852 14.1644 7.35852 14.1503 7.35852C13.9028 7.35852 13.5776 7.3856 13.5564 7.08102C13.5422 6.76967 13.8533 6.76967 14.1079 6.76967C14.723 6.76967 14.723 6.76967 14.723 6.18759C14.723 6.05223 14.723 5.91686 14.723 5.78149C14.7301 5.61228 14.815 5.49045 14.9917 5.48368C15.1685 5.47691 15.2887 5.59198 15.2816 5.76119C15.2533 6.68168 15.4089 7.60895 15.1331 8.51591C15.0059 8.92878 15.1119 9.05062 15.5574 9.05738C16.4483 9.05738 17.0634 8.46854 17.0705 7.61572C17.0705 7.43297 17.0705 7.257 17.0917 7.07425C17.1129 6.91181 17.219 6.78998 17.3887 6.78998C17.5584 6.78998 17.6644 6.91858 17.6786 7.08102C17.8624 8.7325 16.717 9.68007 15.5008 9.58532C14.8432 9.53117 14.4049 9.7613 14.0301 10.2148C13.8675 10.0997 13.8604 9.9102 13.8038 9.73422Z" fill="#BABBDB"/>
<path d="M8.92496 15.4945C8.35223 15.9954 7.65931 16.2526 6.90981 16.3677C6.45022 16.4421 5.97648 16.4556 5.50275 16.4421C5.27649 16.4353 5.07144 16.3676 5.06437 16.1443C5.0573 15.8871 5.29063 15.8736 5.50275 15.8803C6.45729 15.9209 7.37648 15.8059 8.21789 15.3389C8.22496 15.5893 8.39466 15.6367 8.59263 15.5622C8.69869 15.5216 8.80476 15.4945 8.92496 15.4945Z" fill="#A1CCE9"/>
<path d="M8.55762 15.0865C8.56469 15.0189 8.57176 14.9514 8.58591 14.8906C8.6637 14.9649 8.67077 15.0325 8.55762 15.0865Z" fill="#A1CCE9"/>
<path d="M8.33105 15.2913C8.36641 15.2642 8.3947 15.2439 8.43005 15.2168C8.3947 15.2371 8.36641 15.2642 8.33105 15.2913Z" fill="#A1CCE9"/>
<path d="M15.0482 11.3522C15.0411 11.3725 15.034 11.3927 15.0199 11.4062C14.9987 11.3995 14.9704 11.3927 14.9633 11.3792C14.9563 11.3657 14.9775 11.3455 14.9846 11.3252C15.0128 11.3319 15.027 11.3455 15.0482 11.3522Z" fill="#BABBDB"/>
</svg>
