<svg width="25" height="24" viewBox="0 0 25 24" fill="none" xmlns="http://www.w3.org/2000/svg">
<path d="M12.4646 23.9446C5.59643 23.9851 -0.0281582 18.6079 0.00010606 11.9455C0.0283703 5.33718 5.68122 -0.0536093 12.7473 0.0613763C19.4176 0.169598 25.0352 5.41159 24.9998 12.0807C24.9645 18.6079 19.3752 24.0257 12.4646 23.9446ZM4.64958 5.01252C4.52239 5.1275 4.38106 5.22896 4.26801 5.35748C3.5402 6.18943 2.96785 7.10931 2.52976 8.11036C1.77369 9.85544 1.56877 11.6682 1.84435 13.5215C2.05633 14.9419 2.57215 16.2743 3.38475 17.4986C3.98537 18.3982 4.7061 19.1963 5.54697 19.8795C7.39827 21.3878 9.57462 22.1792 11.9983 22.3077C13.2136 22.3686 14.4078 22.213 15.5878 21.868C17.3756 21.3472 18.9372 20.4882 20.1949 19.1557C20.5411 18.7837 20.9298 18.4388 21.1771 17.9856C21.4597 17.83 21.5799 17.5459 21.7282 17.3024C22.9648 15.253 23.4736 13.0547 23.1627 10.6874C22.9224 8.90174 22.2441 7.2987 21.1347 5.84447C20.4493 4.94488 19.6296 4.18056 18.6828 3.55153C17.4674 2.73986 16.1319 2.18523 14.6693 1.90115C13.4892 1.67117 12.2951 1.60354 11.108 1.77263C9.68768 1.97555 8.32393 2.38138 7.0803 3.09158C6.17584 3.62593 5.33498 4.22791 4.64958 5.01252Z" fill="#D9E8D7"/>
<path d="M21.184 17.9992C20.9296 18.4456 20.5481 18.7973 20.2018 19.1694C18.9441 20.5018 17.3825 21.3541 15.5948 21.8817C14.4147 22.2266 13.2206 22.3822 12.0052 22.3213C9.58156 22.1928 7.40521 21.4082 5.5539 19.8931C4.71304 19.2032 3.9923 18.405 3.39169 17.4987C2.57909 16.2744 2.06327 14.942 1.85129 13.5215C1.57571 11.6683 1.77356 9.85554 2.5367 8.11047C2.97479 7.10942 3.54714 6.18277 4.27495 5.35082C4.388 5.2223 4.52932 5.12084 4.65651 5.00586C4.66358 5.08026 4.71304 5.10732 4.77664 5.1479C4.98862 5.28994 5.2218 5.41845 5.37019 5.60784C5.5963 5.91222 5.91427 6.12189 6.17572 6.39245C6.42303 6.64947 6.64914 6.9809 7.05191 7.08236C7.10844 7.09589 7.15083 7.17705 7.18616 7.23117C7.39814 7.56259 7.52533 7.98872 8.06942 7.9549C8.12595 7.9549 8.11182 8.04959 8.11182 8.1037C7.91397 8.23898 7.71612 8.37426 7.51827 8.50953C6.23931 9.40912 5.12994 10.471 4.16189 11.675C3.99937 11.8779 3.94284 12.0673 4.12656 12.2838C5.58217 14.0897 7.28509 15.6183 9.4685 16.5991C10.804 17.1943 12.196 17.4108 13.6587 17.174C14.5137 17.0387 15.298 16.7141 16.0823 16.3691C16.1106 16.3488 16.1389 16.3353 16.1671 16.315C16.4922 16.1256 16.8172 15.943 17.1352 15.7536C17.333 15.8213 17.4885 15.828 17.439 15.5507C17.4814 15.5236 17.5309 15.4898 17.5733 15.4628C17.6227 15.5507 17.7146 15.6251 17.7923 15.5845C17.9336 15.5169 17.8418 15.3681 17.8488 15.2531C17.8912 15.226 17.9336 15.1922 17.976 15.1652C17.9972 15.3004 18.075 15.3613 18.2163 15.3545C18.3293 15.3478 18.4212 15.3816 18.4989 15.4628C19.0147 15.9633 19.5518 16.4503 20.0181 16.9982C20.3078 17.3431 20.7318 17.5731 20.9791 17.9519C21.0144 17.9924 21.1134 17.9857 21.184 17.9992ZM17.87 17.1131C17.757 16.8832 17.545 16.7276 17.3401 16.5856C17.1422 16.4435 16.8525 16.5788 16.8384 16.8088C16.8243 17.1199 17.0998 17.2687 17.3048 17.4378C17.4814 17.5866 17.6793 17.5393 17.8347 17.3769C17.9195 17.3837 17.9831 17.3634 17.9972 17.262C18.0043 17.174 17.9619 17.1267 17.87 17.1131ZM12.839 18.493C12.8461 18.4389 12.8461 18.378 12.8461 18.3239C12.8461 18.1074 12.7613 17.9451 12.514 17.9316C12.2596 17.9248 12.1677 18.0871 12.1607 18.3036C12.1536 18.4592 12.1465 18.6215 12.1677 18.7703C12.196 18.9597 12.3303 19.0679 12.5352 19.0544C12.726 19.0476 12.8319 18.9326 12.8461 18.7568C12.8461 18.6688 12.839 18.5809 12.839 18.493ZM8.16834 16.7952C8.16834 16.7141 8.09062 16.6262 7.97049 16.5585C7.85744 16.4976 7.73731 16.5112 7.64546 16.5856C7.49 16.7208 7.34162 16.8629 7.20029 17.0117C7.10137 17.1131 7.10137 17.2349 7.17203 17.3566C7.23562 17.4581 7.32748 17.5122 7.46174 17.5122C7.70198 17.519 8.16834 17.0793 8.16834 16.7952Z" fill="#BED9B9"/>
<path d="M8.11204 8.11007C8.10498 8.05595 8.11911 7.96126 8.06965 7.96126C7.52556 7.98832 7.39837 7.56896 7.18639 7.23753C7.15106 7.18342 7.10866 7.10225 7.05213 7.08872C6.64937 6.98727 6.42325 6.65584 6.17594 6.39881C5.9145 6.12826 5.59652 5.91858 5.37041 5.6142C5.22909 5.42481 4.98884 5.2963 4.77686 5.15426C4.71327 5.11368 4.6638 5.08662 4.65674 5.01222C5.34215 4.22761 6.18301 3.62563 7.09453 3.10481C8.33816 2.38784 9.70191 1.98201 11.1222 1.78586C12.3093 1.61676 13.5034 1.69117 14.6835 1.91437C16.1391 2.19846 17.4816 2.74633 18.697 3.56475C19.6439 4.20056 20.4635 4.96487 21.1489 5.8577C22.2583 7.31193 22.9437 8.91496 23.1769 10.7006C23.4878 13.068 22.9861 15.2662 21.7425 17.3157C21.5941 17.5592 21.474 17.85 21.1913 17.9988C21.1207 17.9853 21.0217 17.9921 20.9935 17.9582C20.7391 17.5727 20.3222 17.3495 20.0325 17.0045C19.5661 16.4567 19.0291 15.9697 18.5133 15.4691C18.4356 15.388 18.3366 15.3542 18.2306 15.3609C18.0893 15.3677 18.0116 15.3068 17.9904 15.1715C18.054 15.1107 18.1176 15.043 18.1953 14.9889C19.1846 14.2043 20.0608 13.3182 20.8522 12.351C21.0147 12.1481 21.0712 11.9587 20.8945 11.7423C19.4743 9.99042 17.8279 8.48208 15.7151 7.50132C14.1253 6.75729 12.4718 6.54085 10.7477 6.9805C9.79377 7.21047 8.94584 7.64336 8.11204 8.11007ZM17.5099 6.50027C17.2909 6.50703 16.8316 6.93992 16.8174 7.1496C16.8033 7.38633 17.0718 7.57572 17.2979 7.4675C17.517 7.35928 17.6936 7.18342 17.8208 6.98727C17.9763 6.75053 17.7925 6.48674 17.5099 6.50027ZM12.8463 5.51951C12.8463 5.43158 12.8534 5.33688 12.8463 5.24895C12.8251 5.06633 12.712 4.96487 12.5283 4.95134C12.3375 4.93782 12.2033 5.03251 12.168 5.20837C12.1256 5.41805 12.1185 5.63449 12.168 5.84417C12.2104 6.01327 12.3375 6.11473 12.5283 6.09444C12.7191 6.08091 12.8251 5.97269 12.8463 5.79006C12.8534 5.70213 12.8463 5.60744 12.8463 5.51951ZM8.17564 7.14283C8.16857 6.93992 7.70928 6.50703 7.49023 6.4935C7.34891 6.48674 7.24292 6.54085 7.17226 6.65584C7.1016 6.77082 7.1016 6.89934 7.19345 7.00079C7.33478 7.1496 7.48316 7.29164 7.63862 7.42692C7.74461 7.52161 7.8718 7.51485 7.99192 7.44721C8.10498 7.37957 8.1827 7.28487 8.17564 7.14283Z" fill="#B7D0B6"/>
<path d="M8.11189 8.11043C8.94568 7.64372 9.79361 7.21759 10.7334 6.97409C12.4575 6.53444 14.111 6.75089 15.7008 7.49491C17.8065 8.47568 19.4529 9.98402 20.8803 11.7359C21.0569 11.9523 21.0004 12.1417 20.8379 12.3446C20.0465 13.3119 19.1703 14.1979 18.181 14.9825C18.1104 15.0366 18.0468 15.1043 17.9761 15.1652C17.9337 15.1922 17.8913 15.226 17.8489 15.2531C17.8277 15.2666 17.8065 15.2801 17.7853 15.2937C17.7641 15.314 17.7359 15.3343 17.7147 15.3545C17.6652 15.3884 17.6158 15.4222 17.5663 15.4628C17.5239 15.4898 17.4744 15.5236 17.432 15.5507C17.3331 15.6183 17.2342 15.686 17.1282 15.7536C16.8032 15.943 16.4781 16.1256 16.1601 16.315C16.1319 16.3353 16.1036 16.3488 16.0753 16.3691C15.2981 16.7141 14.5067 17.0388 13.6517 17.174C12.189 17.4108 10.797 17.1943 9.4615 16.5991C7.28515 15.6183 5.58223 14.0897 4.12662 12.2905C3.94997 12.0741 3.99943 11.8847 4.16195 11.6818C5.13 10.4778 6.23938 9.41586 7.51834 8.51626C7.71619 8.38098 7.91404 8.2457 8.11189 8.11043ZM10.2812 7.83987C9.83601 7.96839 9.41911 8.15101 9.03047 8.40127C8.93862 8.40804 8.86089 8.45538 8.81143 8.52979C7.24276 9.38204 5.99206 10.5725 4.86856 11.905C4.81203 11.9726 4.79083 12.0335 4.85443 12.1146C5.05228 12.3514 5.20066 12.6355 5.41971 12.8384C5.89314 13.278 6.3171 13.765 6.84706 14.1573C7.62433 14.739 8.39453 15.3275 9.27072 15.7807C10.6415 16.4773 12.076 16.7885 13.6234 16.5179C14.3088 16.3962 14.9518 16.1594 15.5525 15.8145C16.1177 15.4898 16.7466 15.2666 17.2483 14.8337C18.3577 14.0965 19.2692 13.1563 20.1242 12.162C20.2231 12.047 20.1949 11.9726 20.1101 11.8711C18.7463 10.2613 17.1777 8.88151 15.185 8.01573C13.574 7.30553 11.9346 7.19054 10.2812 7.83987Z" fill="#3D8435"/>
<path d="M12.8392 18.4923C12.8392 18.5803 12.8463 18.6682 12.8392 18.7629C12.8251 18.9455 12.7261 19.0538 12.5283 19.0605C12.3234 19.0673 12.1891 18.9658 12.1609 18.7764C12.1397 18.6209 12.1467 18.4653 12.1538 18.3097C12.1679 18.0933 12.2598 17.9309 12.5071 17.9377C12.7544 17.9445 12.8392 18.1136 12.8392 18.33C12.8392 18.3774 12.8392 18.4315 12.8392 18.4923Z" fill="#3D8435"/>
<path d="M17.8348 17.3768C17.6794 17.5391 17.4815 17.5864 17.3049 17.4376C17.1 17.2686 16.8173 17.1198 16.8385 16.8086C16.8527 16.5787 17.1424 16.4502 17.3402 16.5854C17.5451 16.7342 17.7571 16.883 17.8702 17.113C17.856 17.2009 17.849 17.2888 17.8348 17.3768Z" fill="#3D8435"/>
<path d="M8.16855 16.7957C8.16855 17.0797 7.70218 17.5126 7.46193 17.5126C7.33474 17.5126 7.23582 17.4585 7.17222 17.357C7.10156 17.2421 7.10156 17.1136 7.20049 17.0121C7.34181 16.8633 7.4902 16.7213 7.64565 16.586C7.73751 16.5048 7.85764 16.4913 7.9707 16.5589C8.09082 16.6266 8.16855 16.7213 8.16855 16.7957Z" fill="#3D8435"/>
<path d="M17.7852 15.2993C17.8064 15.2858 17.8276 15.2723 17.8488 15.2588C17.8347 15.3735 17.9336 15.522 17.7923 15.5895C17.7146 15.63 17.6156 15.549 17.5732 15.468C17.6227 15.4343 17.6722 15.3938 17.7216 15.36C17.7358 15.3398 17.764 15.3195 17.7852 15.2993Z" fill="#B7D0B6"/>
<path d="M17.1353 15.7532C17.2342 15.6857 17.3331 15.6183 17.4391 15.5508C17.4885 15.8274 17.3331 15.8274 17.1353 15.7532Z" fill="#B7D0B6"/>
<path d="M17.8347 17.3756C17.8488 17.2878 17.8559 17.2001 17.87 17.1123C17.9619 17.1258 18.0043 17.1731 17.9972 17.2608C17.9902 17.3621 17.9195 17.3824 17.8347 17.3756Z" fill="#B7D0B6"/>
<path d="M16.0825 16.3679C16.1108 16.3479 16.1391 16.3345 16.1673 16.3145C16.1391 16.3278 16.1108 16.3479 16.0825 16.3679Z" fill="#B7D0B6"/>
<path d="M17.5097 6.5011C17.7853 6.49434 17.9761 6.75813 17.8277 6.98134C17.7005 7.1775 17.5239 7.35336 17.3048 7.46158C17.0858 7.56981 16.8173 7.38042 16.8244 7.14368C16.8314 6.94076 17.2907 6.50787 17.5097 6.5011Z" fill="#3D8435"/>
<path d="M12.8464 5.51964C12.8464 5.60757 12.8535 5.70226 12.8464 5.7902C12.8252 5.97282 12.7192 6.07428 12.5284 6.09457C12.3376 6.11486 12.2034 6.0134 12.168 5.84431C12.1186 5.63463 12.1256 5.41818 12.168 5.2085C12.2034 5.03264 12.3376 4.93794 12.5284 4.95147C12.7121 4.965 12.8323 5.06646 12.8464 5.24908C12.8535 5.33701 12.8464 5.43171 12.8464 5.51964Z" fill="#3D8435"/>
<path d="M8.17554 7.14309C8.18261 7.27838 8.11195 7.37984 7.99183 7.44748C7.87171 7.52189 7.73746 7.52189 7.63853 7.42719C7.48308 7.29191 7.3347 7.14986 7.19338 7.00104C7.10153 6.89958 7.10153 6.77783 7.17219 6.65607C7.24285 6.54108 7.34883 6.48696 7.49015 6.49373C7.70919 6.51402 8.16848 6.94017 8.17554 7.14309Z" fill="#3D8435"/>
<path d="M17.2414 14.82C16.7468 15.2529 16.1179 15.4829 15.5456 15.8008C14.945 16.139 14.3019 16.3825 13.6165 16.5042C12.0691 16.7816 10.6276 16.4636 9.26383 15.767C8.38763 15.3206 7.61743 14.7321 6.84016 14.1436C6.31021 13.7513 5.88624 13.2643 5.41282 12.8247C5.20083 12.6218 5.04538 12.3377 4.84753 12.1009C4.78393 12.0198 4.80513 11.9589 4.86166 11.8913C5.98517 10.5655 7.24293 9.3751 8.80453 8.51609C8.91052 8.52285 9.00945 8.52962 9.02358 8.38757C9.41221 8.14407 9.82911 7.95469 10.2743 7.82617C10.3732 7.94792 10.564 7.9885 10.5781 8.17789C10.4721 8.17789 10.3661 8.17789 10.2601 8.17789C10.1118 8.17789 9.96337 8.17789 9.94924 8.36728C9.9351 8.55667 10.0694 8.58373 10.2319 8.58373C10.3025 8.58373 10.3732 8.57696 10.4297 8.63107C9.75845 9.03691 9.22143 9.55773 8.86813 10.2476C8.11206 11.7086 8.3735 13.4605 9.55353 14.6645C10.6912 15.8278 12.493 16.1863 14.0546 15.5843C14.8602 15.28 15.4325 14.7321 15.9413 14.0963C15.9837 14.333 15.9271 14.5359 15.7364 14.705C15.6798 14.7524 15.5809 14.8133 15.6445 14.8944C15.694 14.9621 15.7999 14.9485 15.8777 14.9215C16.0967 14.8336 16.1815 14.9012 16.1674 15.1176C16.1603 15.2056 16.238 15.3138 16.3016 15.2123C16.4712 14.9756 17.0153 15.0027 16.8245 14.5089C16.7963 14.4345 16.8811 14.3127 16.987 14.2722C17.0577 14.2451 17.1284 14.2654 17.1708 14.3263C17.2485 14.4345 17.1849 14.5021 17.1001 14.5833C16.9305 14.793 17.1354 14.7862 17.2414 14.82Z" fill="#BED9B9"/>
<path d="M17.2413 14.821C17.1283 14.7872 16.9304 14.7872 17.1142 14.6046C17.1919 14.5234 17.2625 14.4558 17.1848 14.3476C17.1424 14.2867 17.0718 14.2664 17.0011 14.2934C16.8951 14.334 16.8103 14.4558 16.8386 14.5302C17.0294 15.0172 16.4782 14.9969 16.3157 15.2336C16.245 15.3283 16.1744 15.2269 16.1814 15.1389C16.1956 14.9157 16.1108 14.8548 15.8917 14.9428C15.8211 14.9698 15.7151 14.9834 15.6585 14.9157C15.5949 14.8346 15.6939 14.7737 15.7504 14.7263C15.9412 14.5572 15.9977 14.3543 15.9553 14.1176C15.9765 14.077 16.0048 14.0364 16.026 13.9958C16.0542 14.0364 16.0966 14.0838 16.132 14.0364C16.1885 13.962 16.1037 13.9552 16.0542 13.9417C16.1037 13.8403 16.1461 13.7388 16.1956 13.6373C17.1777 11.5676 16.1673 9.20698 13.9486 8.38178C12.9734 8.01653 11.9983 8.07064 11.0161 8.38178C10.9737 8.12475 10.7547 8.21268 10.5922 8.19239C10.578 8.003 10.3873 7.96242 10.2883 7.84067C11.9418 7.19133 13.5811 7.30632 15.178 7.99624C17.1777 8.86202 18.7393 10.2486 20.1031 11.8517C20.1879 11.9531 20.2162 12.0275 20.1172 12.1425C19.2622 13.1436 18.3578 14.0838 17.2413 14.821Z" fill="#B7D0B6"/>
<path d="M9.03058 8.40137C9.01645 8.53636 8.91045 8.52961 8.81152 8.52961C8.86805 8.44861 8.93872 8.40812 9.03058 8.40137Z" fill="#B7D0B6"/>
<path d="M17.7853 15.3008C17.7641 15.3208 17.7358 15.3409 17.7146 15.3609C17.7358 15.3409 17.7641 15.3208 17.7853 15.3008Z" fill="#BED9B9"/>
<path d="M16.0118 13.995C15.9906 14.0356 15.9624 14.0762 15.9412 14.1168C15.4324 14.7526 14.8601 15.2937 14.0545 15.6048C12.4929 16.2 10.6911 15.8483 9.55345 14.6849C8.38048 13.481 8.11197 11.7291 8.86804 10.2681C9.22841 9.57821 9.75836 9.05739 10.4296 8.65156C10.5144 8.63127 10.5922 8.60421 10.6487 8.52981C10.7688 8.48246 10.8819 8.42835 11.002 8.381C11.9771 8.06986 12.9593 8.01575 13.9344 8.381C16.1531 9.2062 17.1565 11.5668 16.1814 13.6365C16.1319 13.738 16.0895 13.8394 16.0401 13.9409C16.0259 13.9544 16.0118 13.968 16.0118 13.995ZM15.5667 13.3254C15.715 13.0413 15.7857 12.764 15.8352 12.4731C15.8705 12.2702 15.8069 12.2567 15.6161 12.2905C14.7823 12.4326 14.0828 12.2432 13.5882 11.533C13.3409 11.1812 13.1854 11.161 12.7897 11.4045C12.3304 11.6885 11.9064 11.6277 11.4683 11.3706C11.0938 11.1542 10.896 10.8295 10.7829 10.4305C10.684 10.0517 10.79 9.67967 10.7971 9.26031C10.465 9.42264 10.2247 9.61203 9.99154 9.80818C9.77956 9.98404 9.77956 10.1193 9.99861 10.2952C10.4296 10.6401 10.6275 11.1136 10.6346 11.6412C10.6416 12.2296 10.8041 12.7302 11.214 13.1834C11.6097 13.623 11.5249 14.0491 11.0373 14.3941C10.9455 14.4617 10.8395 14.5158 10.7405 14.5767C10.6628 14.6308 10.6275 14.6714 10.7193 14.7593C10.9808 14.9893 11.2776 15.0299 11.5673 14.8405C11.7086 14.7458 11.8428 14.6308 11.9771 14.5226C12.3233 14.2385 12.4223 13.8124 12.6484 13.4607C13.2419 12.5678 14.0687 12.3852 14.9943 12.9601C15.1922 13.0684 15.3688 13.1969 15.5667 13.3254ZM12.5212 8.7936C12.2739 8.7936 12.0266 8.80036 11.7863 8.86124C11.7086 8.88153 11.6097 8.88829 11.5955 8.98299C11.5178 9.46322 11.32 9.94346 11.5178 10.444C11.6874 10.8633 12.1043 11.0054 12.5 10.7889C13.1218 10.444 13.6942 10.5252 14.104 11.0933C14.4644 11.5871 14.9095 11.7291 15.496 11.648C15.7716 11.6141 15.8493 11.5262 15.7786 11.2556C15.3971 9.80818 14.0687 8.80036 12.5212 8.7936ZM12.2032 15.2193C13.1642 15.2802 13.9627 15.0502 14.6269 14.5023C15.4183 13.8462 15.3052 13.9409 14.4856 13.4269C14.0121 13.136 13.6376 13.251 13.3126 13.7042C13.2349 13.8124 13.1571 13.9341 13.1006 14.0559C12.9098 14.482 12.6484 14.8608 12.2032 15.2193ZM9.12242 12.0538C9.15068 12.6828 9.3132 13.2442 9.65944 13.7448C10.0057 14.2588 10.0834 14.2656 10.5992 13.8936C10.7405 13.7921 10.8112 13.7042 10.6628 13.5486C10.1187 13.0143 9.95621 12.3446 9.95621 11.6277C9.95621 11.3233 9.82196 11.0595 9.61704 10.8295C9.50399 10.7078 9.44039 10.6807 9.3556 10.8701C9.17895 11.2624 9.15775 11.675 9.12242 12.0538Z" fill="#3D8435"/>
<path d="M10.6556 8.52285C10.5991 8.59049 10.5214 8.62431 10.4366 8.6446C10.3801 8.59049 10.3094 8.59049 10.2387 8.59725C10.0833 8.59725 9.94901 8.5702 9.95608 8.3808C9.97021 8.19141 10.1186 8.19141 10.267 8.19141C10.373 8.19141 10.479 8.19141 10.585 8.19141C10.6062 8.29963 10.6344 8.41462 10.6556 8.52285Z" fill="#B7D0B6"/>
<path d="M10.6559 8.52312C10.6347 8.40834 10.6064 8.30032 10.5852 8.18555C10.7477 8.2058 10.9597 8.11803 11.0092 8.37459C10.8891 8.4286 10.7689 8.47586 10.6559 8.52312Z" fill="#BED9B9"/>
<path d="M16.0117 13.9944C16.0117 13.9742 16.0188 13.9539 16.04 13.9404C16.0894 13.9539 16.1742 13.9607 16.1177 14.0349C16.0824 14.0754 16.04 14.0282 16.0117 13.9944Z" fill="#BED9B9"/>
<path d="M15.5665 13.3248C15.3758 13.1963 15.192 13.0678 15.0083 12.9528C14.0827 12.3779 13.2559 12.5605 12.6624 13.4533C12.4292 13.805 12.3303 14.2312 11.9911 14.5152C11.8568 14.6235 11.7226 14.7385 11.5813 14.8331C11.2845 15.0225 10.9948 14.9887 10.7333 14.752C10.6344 14.6641 10.6768 14.6235 10.7545 14.5694C10.8535 14.5085 10.9524 14.4476 11.0513 14.3867C11.5389 14.0485 11.6237 13.6156 11.228 13.176C10.8181 12.7228 10.6485 12.2223 10.6485 11.6338C10.6485 11.1062 10.4436 10.6395 10.0126 10.2878C9.79354 10.1119 9.79354 9.9699 10.0055 9.80081C10.2387 9.60465 10.479 9.41526 10.8111 9.25293C10.7969 9.67229 10.6909 10.0443 10.7969 10.4231C10.9029 10.8289 11.1008 11.1468 11.4823 11.3633C11.9204 11.6135 12.3444 11.6812 12.8037 11.3971C13.1994 11.1536 13.3549 11.1739 13.6022 11.5256C14.1039 12.2358 14.8034 12.4252 15.6301 12.2832C15.8209 12.2493 15.8845 12.2629 15.8492 12.4658C15.7785 12.7566 15.7149 13.0407 15.5665 13.3248Z" fill="#B7D0B6"/>
<path d="M12.5211 8.79395C14.0685 8.80071 15.397 9.8085 15.7785 11.2559C15.8492 11.5332 15.7715 11.6144 15.4959 11.6482C14.9094 11.7294 14.4572 11.5874 14.1039 11.0936C13.694 10.5255 13.1217 10.4443 12.4999 10.7892C12.1042 11.0057 11.6873 10.8636 11.5177 10.4443C11.3198 9.95054 11.5177 9.47031 11.5954 8.98333C11.6095 8.88864 11.7085 8.88187 11.7862 8.86158C12.0264 8.80071 12.2737 8.79395 12.5211 8.79395Z" fill="#B7D0B6"/>
<path d="M12.2031 15.2195C12.6483 14.861 12.9097 14.4822 13.1005 14.0494C13.157 13.9276 13.2277 13.8059 13.3125 13.6976C13.6375 13.2445 14.0191 13.1295 14.4854 13.4203C15.3051 13.9276 15.4182 13.8329 14.6268 14.4958C13.9626 15.0504 13.1641 15.2804 12.2031 15.2195Z" fill="#B7D0B6"/>
<path d="M9.12231 12.0541C9.15058 11.6753 9.17884 11.2627 9.34843 10.8704C9.43322 10.681 9.49681 10.7081 9.60987 10.8298C9.81479 11.0598 9.94904 11.3168 9.94904 11.628C9.95611 12.3449 10.1186 13.0146 10.6556 13.5489C10.8111 13.7045 10.7404 13.7924 10.5921 13.8939C10.0833 14.2659 10.0056 14.2591 9.65227 13.7451C9.32016 13.2445 9.15058 12.6831 9.12231 12.0541Z" fill="#B7D0B6"/>
</svg>
