<svg width="25" height="24" viewBox="0 0 25 24" fill="none" xmlns="http://www.w3.org/2000/svg">
<path d="M12.4382 0.00138172C19.4256 -0.100063 25.0071 5.39823 25 11.9515C24.9929 18.5116 19.4044 23.9085 12.41 23.8814C5.65571 23.8544 -0.165949 18.5116 0.00361367 11.6066C0.166111 5.33736 5.57799 -0.045959 12.4382 0.00138172ZM11.873 1.69212C11.4208 1.69212 10.9687 1.72594 10.5306 1.82738C10.3045 1.86796 10.0714 1.89501 9.84532 1.94912C8.89153 2.17906 7.99426 2.55778 7.13231 3.0109C5.8394 3.69396 4.81496 4.6543 3.91062 5.73638C3.70573 5.97984 3.46552 6.22331 3.39487 6.5547C3.28183 6.68319 3.14759 6.79816 3.06987 6.94018C2.37042 8.1981 1.89706 9.53716 1.79109 10.9574C1.68511 12.3844 1.79109 13.8046 2.28565 15.1707C3.11933 17.4634 4.58887 19.2758 6.72254 20.6014C8.29099 21.5752 10.0149 22.0892 11.8589 22.2245C13.2012 22.3259 14.5224 22.1298 15.8083 21.7376C17.3343 21.2641 18.6626 20.4729 19.8637 19.4652C19.9626 19.384 20.0685 19.3096 20.1533 19.2217C20.8669 18.4508 21.5734 17.6798 22.0468 16.733C22.3718 16.0837 22.7038 15.448 22.8381 14.7379C23.0218 14.4606 23.0006 14.1427 23.0712 13.8384C23.3962 12.4114 23.3468 10.9844 23.0006 9.57098C22.7392 8.49567 22.3223 7.48122 21.7006 6.54117C21.1283 5.67551 20.4501 4.89101 19.6446 4.21471C18.3941 3.17321 16.9811 2.409 15.3561 2.00998C14.261 1.73946 13.1518 1.6042 12.0284 1.62449C11.9507 1.62449 11.9013 1.63802 11.873 1.69212Z" fill="#FDE5C7"/>
<path d="M19.8564 19.472C18.6623 20.4797 17.327 21.2777 15.801 21.7443C14.5222 22.1434 13.194 22.3327 11.8516 22.2313C10.0076 22.096 8.2837 21.582 6.71524 20.6082C4.58158 19.2826 3.11203 17.4702 2.27835 15.1775C1.77673 13.8046 1.67075 12.3912 1.78379 10.9642C1.88977 9.54398 2.36313 8.20492 3.06258 6.94701C3.14029 6.80499 3.28159 6.69002 3.38757 6.56152C3.67724 6.92672 4.03756 7.23106 4.34136 7.58273C4.75114 8.0629 5.28809 8.42133 5.68373 8.91503C6.16416 9.51693 6.72937 10.0512 7.30165 10.5787C7.5136 10.7748 7.7962 10.8763 7.9587 11.1198C8.53804 11.9516 9.35053 12.567 10.1277 13.2027C10.3043 13.3448 10.4103 13.5138 10.5587 13.6559C10.7918 13.879 10.6152 14.0549 10.488 14.2442C10.4386 14.3186 10.4668 14.4404 10.4598 14.5418C10.3255 14.7244 10.1913 14.907 10.0641 15.0964C9.92987 15.279 9.7815 15.3128 9.54835 15.2384C8.81358 15.0084 8.02229 15.2722 7.55599 15.8876C7.1886 16.3746 7.17447 17.2605 7.53479 17.7677C7.98696 18.4034 8.75706 18.6875 9.50596 18.4981C10.5728 18.2208 11.1168 17.0711 10.6152 16.1108C10.5233 15.935 10.4739 15.7794 10.594 15.6103C10.9896 15.0693 11.3923 14.535 11.7951 14.0008C11.8798 14.0008 11.9646 14.0143 12.0141 13.9264C12.1201 13.9196 12.2048 13.9602 12.2896 14.0075C12.4874 14.1969 12.869 14.1969 13.0668 14.0075C13.1516 13.9467 13.2434 13.9264 13.3494 13.9399C13.4554 14.1225 13.4624 14.3998 13.7874 14.3998C13.8086 14.5689 13.8439 14.7244 14.063 14.7447C14.1053 14.9138 14.0418 15.1505 14.3456 15.1505C14.4303 15.1978 14.4798 15.2587 14.4869 15.3466C14.5716 15.563 14.4162 15.9485 14.8966 15.8944C14.9108 15.9079 14.9108 15.9282 14.9108 15.9417C14.9037 16.0432 14.8896 16.1514 15.0521 16.1581H15.045C15.0662 16.1852 15.0945 16.2055 15.1157 16.2325C15.1157 16.2664 15.1227 16.3002 15.1227 16.334C15.1227 16.3678 15.1157 16.4016 15.1157 16.4422C15.1157 16.5572 15.0168 16.618 14.9673 16.7059C14.8684 16.7195 14.7907 16.7465 14.9108 16.848C14.9037 16.9562 14.8896 17.0711 14.8825 17.1794C14.6988 17.2673 14.6988 17.362 14.8825 17.4499C14.8613 17.673 15.0309 17.8421 15.0591 18.0518C14.932 18.2276 15.1086 18.1735 15.1863 18.1938C15.2146 18.2344 15.2428 18.2749 15.264 18.3155C15.257 18.4643 15.3629 18.4643 15.4689 18.4643C15.5396 18.5049 15.6102 18.5455 15.6809 18.5928C15.695 18.6875 15.7021 18.7754 15.8222 18.6604C15.8928 18.6807 15.9564 18.701 16.0271 18.7213C16.2037 18.9377 16.4863 18.9377 16.67 18.7213C16.7618 18.701 16.8537 18.674 16.9385 18.6537C17.0727 18.7822 17.0727 18.674 17.0798 18.5793C17.1999 18.4981 17.3129 18.4102 17.433 18.3291C17.6097 18.3493 17.6732 18.2614 17.645 18.1059C17.645 18.0518 17.6662 18.0112 17.7156 17.9909C17.9064 17.9909 18.0689 18.018 18.2102 18.1803C18.4504 18.4643 18.7895 18.6401 19.0015 18.9783C19.1004 19.1406 19.4113 19.3029 19.708 19.2826C19.8493 19.2691 19.8493 19.3773 19.8564 19.472Z" fill="#FDCA9F"/>
<path d="M10.4599 14.5416C10.4669 14.4402 10.4387 14.3184 10.4881 14.244C10.6153 14.0479 10.7919 13.8788 10.5588 13.6557C10.4104 13.5136 10.3044 13.3446 10.1278 13.2025C9.35064 12.5668 8.53816 11.9446 7.95882 11.1195C7.78926 10.8828 7.50665 10.7746 7.30176 10.5785C6.72949 10.051 6.16428 9.51672 5.68385 8.91481C5.28821 8.41435 4.75126 8.05592 4.34148 7.58251C4.03768 7.22407 3.67736 6.9265 3.3877 6.5613C3.45835 6.22992 3.69856 5.98645 3.90345 5.74298C4.81485 4.66091 5.83929 3.70056 7.11807 3.0175C7.98002 2.56439 8.87728 2.18566 9.83107 1.95572C10.0572 1.90161 10.2903 1.87456 10.5164 1.83398C10.5093 1.94219 10.5234 2.0504 10.6365 2.09098C11.0039 2.22624 11.0392 2.71317 11.4631 2.79433C11.4984 2.80109 11.5408 2.88901 11.5408 2.93635C11.5479 3.16629 11.7175 3.29479 11.8658 3.43005C12.0354 3.58559 12.1555 3.75467 12.1343 3.99137C12.1202 4.16721 12.1979 4.25513 12.3957 4.26865C12.9397 4.31599 13.2082 4.57975 13.2647 5.09374C13.2718 5.17489 13.2788 5.29663 13.3495 5.29663C13.7451 5.28986 13.8864 5.66859 14.1902 5.77003C14.4163 5.85119 14.5647 5.91206 14.5576 6.16905C14.5576 6.26373 14.6283 6.36518 14.7696 6.35165C14.8756 6.34489 14.9462 6.29078 14.9957 6.20963C15.0592 6.10142 14.9533 6.04732 14.8897 5.98645C14.8332 5.93234 14.7554 5.89853 14.6919 5.84443C14.5647 5.73622 14.6565 5.62801 14.7272 5.55362C14.8402 5.43189 14.8685 5.54009 14.9109 5.62801C14.9745 5.78356 15.1511 5.83766 15.25 5.9594C14.9745 6.55454 14.9674 7.13615 15.3913 7.67719C15.4832 7.79216 15.4478 7.87332 15.3701 7.97476C14.8685 8.6443 14.3739 9.31383 13.8864 9.98336C13.7946 10.1119 13.6957 10.1457 13.5332 10.0848C12.7207 9.794 11.9647 9.89545 11.3006 10.45C11.2017 10.5312 11.1381 10.5447 11.0251 10.4635C10.3892 9.98336 9.74629 9.50996 9.10337 9.03655C8.955 8.92834 8.88435 8.83366 8.9338 8.62401C9.08217 8.00858 8.80663 7.48106 8.26262 7.20378C7.74686 6.94679 7.11101 7.02118 6.72242 7.37962C6.24906 7.81921 6.13602 8.45493 6.44689 8.97568C6.76482 9.50319 7.42894 9.74666 8.05773 9.53025C8.3474 9.4288 8.55229 9.49643 8.76424 9.65874C9.35771 10.1051 9.94411 10.565 10.5517 11.0046C10.6859 11.0993 10.7283 11.1601 10.686 11.3292C10.474 12.0664 10.5588 12.7562 11.131 13.3378C11.2441 13.4528 11.23 13.5407 11.1381 13.6624C10.912 13.9465 10.6859 14.244 10.4599 14.5416ZM5.64853 7.94095C5.54962 8.00181 5.50016 8.08973 5.52842 8.19118C5.54256 8.25881 5.57081 8.37378 5.67679 8.35349C5.81103 8.32644 5.7969 8.2047 5.78983 8.10326C5.78983 8.0221 5.76157 7.94771 5.64853 7.94095Z" fill="#FDD59B"/>
<path d="M15.2641 5.96022C15.1581 5.83848 14.9886 5.78438 14.925 5.62883C14.8896 5.53415 14.8543 5.43271 14.7413 5.55444C14.6706 5.62883 14.5717 5.73704 14.706 5.84525C14.7695 5.89935 14.8473 5.93316 14.9038 5.98727C14.9674 6.04813 15.0663 6.10224 15.0098 6.21044C14.9674 6.2916 14.8896 6.35247 14.7837 6.35247C14.6494 6.35923 14.5717 6.26455 14.5717 6.16987C14.5788 5.91288 14.4233 5.85201 14.2043 5.77085C13.9005 5.66265 13.7522 5.29069 13.3636 5.29745C13.2929 5.29745 13.2859 5.17572 13.2788 5.09456C13.2223 4.58058 12.9538 4.31683 12.4098 4.26949C12.212 4.2492 12.1342 4.16804 12.1484 3.99221C12.1696 3.7555 12.0495 3.58643 11.8799 3.43088C11.7245 3.29563 11.562 3.16037 11.5549 2.93719C11.5549 2.88985 11.5125 2.80193 11.4772 2.79517C11.0533 2.71401 11.018 2.22708 10.6506 2.09182C10.5305 2.05125 10.5234 1.93628 10.5305 1.83483C10.9756 1.73339 11.4207 1.69958 11.8728 1.69958C11.9788 1.80102 12 1.72663 12.0141 1.63871C13.1446 1.61842 14.2467 1.75368 15.3418 2.0242C16.9597 2.42321 18.3798 3.18066 19.6303 4.22891C20.4358 4.9052 21.114 5.68294 21.6863 6.55535C22.301 7.4954 22.7249 8.50984 22.9863 9.58514C23.3325 10.9986 23.3819 12.4188 23.0569 13.8525C22.9863 14.1569 23.0075 14.4747 22.8238 14.752C22.5977 14.7588 22.7602 14.3868 22.4988 14.4409C22.308 14.4883 22.2374 14.3801 22.195 14.2448C22.1526 14.1163 22.0607 14.0487 21.9336 13.9946C21.5803 13.8593 21.326 13.6226 21.1988 13.2709C21.1423 13.1086 21.0504 12.9869 20.8809 12.9396C20.8031 12.9125 20.7113 12.899 20.6901 12.8111C20.5912 12.4256 20.1814 12.2835 19.9483 12.0063C19.6021 11.6073 19.0793 11.3435 18.7967 10.8566C18.7755 10.8228 18.7331 10.7889 18.6907 10.7687C18.3657 10.6266 18.1679 10.3223 17.9488 10.0991C17.6874 9.82861 17.3271 9.61896 17.1434 9.27405C17.0869 9.1726 16.9739 9.09821 16.8537 9.09145C16.557 9.07116 16.5217 8.89532 16.5429 8.67215C16.55 8.55718 16.5429 8.44897 16.5429 8.334C16.6347 8.334 16.7336 8.334 16.8255 8.34076C16.9385 8.5166 17.0304 8.5166 17.1081 8.32048C17.1364 8.30695 17.1717 8.28666 17.1999 8.2799C17.8641 8.07701 18.2809 7.65095 18.3727 6.98818C18.4646 6.2916 18.2032 5.70323 17.5461 5.35832C16.9173 5.02693 16.2885 5.10133 15.7021 5.49357C15.5326 5.48681 15.4054 5.52739 15.4266 5.73028C15.3913 5.81143 15.3418 5.89259 15.2641 5.96022ZM11.3288 2.19327C11.5408 2.22708 11.6609 2.28795 11.781 2.14593C11.6397 2.08506 11.5267 2.0783 11.3288 2.19327ZM14.4516 5.48681C14.4304 5.45976 14.4022 5.38537 14.3598 5.3786C14.282 5.36508 14.275 5.43271 14.282 5.49357C14.2891 5.55444 14.3174 5.60178 14.388 5.60178C14.4445 5.59502 14.4587 5.5612 14.4516 5.48681Z" fill="#FDDF99"/>
<path d="M16.536 8.32632C16.536 8.44129 16.543 8.5495 16.536 8.66447C16.5148 8.88765 16.5501 9.06348 16.8468 9.08377C16.9599 9.09054 17.08 9.16493 17.1365 9.26637C17.3202 9.61128 17.6805 9.82093 17.9419 10.0915C18.161 10.3146 18.3588 10.619 18.6838 10.761C18.7262 10.7813 18.7686 10.8083 18.7897 10.8489C19.0724 11.3291 19.5952 11.5928 19.9414 11.9986C20.1816 12.2759 20.5843 12.4179 20.6832 12.8034C20.7044 12.8913 20.7962 12.9116 20.874 12.9319C21.0435 12.986 21.1354 13.1077 21.1919 13.2633C21.312 13.615 21.5734 13.8517 21.9267 13.9869C22.0609 14.0343 22.1457 14.1086 22.1881 14.2371C22.2375 14.3724 22.3011 14.4738 22.4919 14.4333C22.7533 14.3724 22.5908 14.7511 22.8169 14.7444C22.6897 15.4612 22.3506 16.097 22.0256 16.7394C21.5522 17.6795 20.8528 18.4572 20.1321 19.2282C20.0473 19.3161 19.9414 19.3905 19.8425 19.4717C19.8425 19.377 19.8354 19.2688 19.7082 19.2755C19.4115 19.2958 19.1006 19.1335 19.0017 18.9712C18.7897 18.6331 18.4506 18.4572 18.2104 18.1732C18.0691 18.0109 17.9066 17.9838 17.7159 17.9838C17.7229 17.95 17.7229 17.9162 17.737 17.8824C18.2669 16.7056 17.1012 15.5559 15.999 15.8805C15.8365 15.9279 15.7447 15.8535 15.6528 15.725C15.2431 15.1366 14.8403 14.5415 14.4023 13.9734C14.1692 13.6691 14.0561 13.4324 14.4306 13.1686C14.5083 13.1145 14.5719 13.0063 14.6001 12.9184C14.692 12.6208 14.8686 12.5735 15.1795 12.6411C15.6175 12.7425 15.992 12.7899 16.1969 13.3174C16.4371 13.9463 17.2072 14.1492 17.8642 13.8922C18.4436 13.6691 18.8533 12.9522 18.6484 12.3976C18.4789 11.931 18.1539 11.5455 17.5816 11.4711C17.0729 11.4035 16.6278 11.532 16.3028 11.931C16.1969 12.0595 16.0909 12.1339 15.9142 12.1001C15.6387 12.0459 15.3632 12.0054 15.0876 11.9445C14.9675 11.9175 14.8403 11.8972 14.8262 11.7281C14.798 11.3832 14.6567 11.0721 14.4518 10.7948C14.3317 10.6325 14.3599 10.5243 14.4659 10.3823C14.9251 9.77359 15.3914 9.16493 15.8224 8.53597C16.0273 8.25869 16.2322 8.17754 16.536 8.32632Z" fill="#FDD59B"/>
<path d="M12.0143 1.63246C12.0002 1.72023 11.979 1.79449 11.873 1.69322C11.9013 1.63921 11.9508 1.62571 12.0143 1.63246Z" fill="#FDD59B"/>
<path d="M16.5362 8.32634C16.2324 8.17756 16.0275 8.25871 15.8367 8.536C15.3987 9.16495 14.9395 9.77362 14.4802 10.3823C14.3743 10.5243 14.346 10.6325 14.4661 10.7948C14.671 11.0721 14.8123 11.3832 14.8405 11.7281C14.8547 11.904 14.9819 11.9243 15.102 11.9445C15.3775 12.0054 15.653 12.046 15.9286 12.1001C16.1052 12.1339 16.2112 12.0595 16.3172 11.931C16.6422 11.532 17.0873 11.4035 17.5959 11.4711C18.1682 11.5455 18.4932 11.931 18.6628 12.3977C18.8677 12.9522 18.4579 13.6691 17.8785 13.8923C17.2215 14.1493 16.4514 13.9464 16.2112 13.3174C16.0134 12.7899 15.6389 12.7426 15.1938 12.6411C14.8829 12.5735 14.7063 12.6208 14.6145 12.9184C14.5862 13.0131 14.5226 13.1145 14.4449 13.1686C14.0705 13.4324 14.1835 13.6759 14.4166 13.9734C14.8547 14.5415 15.2574 15.1367 15.6672 15.725C15.759 15.8535 15.8509 15.9279 16.0134 15.8806C17.1155 15.556 18.2813 16.6989 17.7514 17.8824C17.7373 17.9095 17.7372 17.9501 17.7302 17.9839C17.6807 18.0042 17.6595 18.0447 17.6595 18.0989C17.5889 18.1732 17.5182 18.2476 17.4476 18.322C17.3275 18.4032 17.2144 18.4911 17.0943 18.5723C17.0449 18.5993 16.9954 18.6196 16.953 18.6467C16.8612 18.6669 16.7693 18.694 16.6846 18.7143C16.4726 18.7143 16.2606 18.7143 16.0416 18.7143C15.971 18.694 15.9074 18.6737 15.8367 18.6534C15.8014 18.5993 15.752 18.5858 15.6954 18.5858C15.6248 18.5452 15.5541 18.5046 15.4835 18.4573C15.4482 18.3694 15.3704 18.322 15.2786 18.3085C15.2503 18.2679 15.2221 18.2273 15.2009 18.1868C15.1867 18.1191 15.1373 18.0786 15.0737 18.0447C15.0454 17.8351 14.8759 17.666 14.8971 17.4428C14.8971 17.3549 14.8971 17.2602 14.8971 17.1723C14.9041 17.0641 14.9183 16.9491 14.9253 16.8409C14.9748 16.8071 14.996 16.7598 14.9889 16.6989C15.0384 16.611 15.1373 16.5501 15.1373 16.4352C15.1938 16.4013 15.1867 16.3675 15.1444 16.327C15.1444 16.2931 15.1373 16.2593 15.1373 16.2255C15.1161 16.1985 15.0878 16.1782 15.0666 16.1511H15.0737C15.0737 16.0497 15.0172 15.982 14.9324 15.9347C14.9324 15.9144 14.9324 15.9009 14.9183 15.8874C14.7911 15.698 14.6922 15.4883 14.5085 15.3396C14.5014 15.2449 14.4449 15.184 14.3672 15.1434C14.3177 14.9744 14.2188 14.8459 14.0846 14.7376C14.0351 14.5889 13.9715 14.4536 13.809 14.3927C13.7243 14.1898 13.6677 13.9599 13.371 13.9329C13.265 13.9193 13.1732 13.9396 13.0884 14.0005C12.827 14.0005 12.5727 14.0005 12.3112 14.0005C12.2265 13.9531 12.1346 13.9126 12.0357 13.9193C11.9156 13.8179 11.8661 13.9058 11.8167 13.9937C11.414 14.528 11.0113 15.0623 10.6156 15.6033C10.4884 15.7724 10.5379 15.9279 10.6368 16.1038C11.1384 17.0641 10.5944 18.2206 9.52758 18.4911C8.77868 18.6872 8.00858 18.4032 7.55641 17.7607C7.19609 17.2535 7.21023 16.3675 7.57761 15.8806C8.04391 15.2719 8.8352 15.0014 9.56997 15.2313C9.80312 15.3057 9.95149 15.2719 10.0857 15.0893C10.22 14.9067 10.3542 14.7174 10.4814 14.5348C10.7075 14.2372 10.9335 13.9396 11.1667 13.642C11.2585 13.5271 11.2727 13.4324 11.1596 13.3174C10.5873 12.7358 10.5096 12.046 10.7145 11.3088C10.764 11.1397 10.7145 11.0789 10.5803 10.9842C9.97975 10.5446 9.39334 10.0915 8.79281 9.63836C8.58086 9.47605 8.37597 9.40842 8.0863 9.50987C7.4575 9.73304 6.79338 9.48281 6.47545 8.9553C6.16459 8.43455 6.27057 7.79883 6.75099 7.35924C7.13958 7.0008 7.77543 6.92641 8.29119 7.1834C8.8352 7.46068 9.11074 7.98143 8.96237 8.60363C8.91292 8.82004 8.97651 8.90796 9.13194 9.01617C9.77486 9.48958 10.4107 9.96299 11.0536 10.4432C11.1596 10.5243 11.2303 10.5108 11.3292 10.4296C11.9933 9.87507 12.7493 9.78039 13.5618 10.0644C13.7313 10.1253 13.8232 10.0915 13.915 9.96299C14.4096 9.29345 14.9041 8.62392 15.3987 7.95438C15.4764 7.85294 15.5117 7.77178 15.4199 7.65681C14.996 7.11577 15.0031 6.53415 15.2786 5.93901C15.3563 5.87138 15.4058 5.79023 15.427 5.68878C15.54 5.63468 15.6389 5.56029 15.7025 5.45208C16.2889 5.05982 16.9177 4.98543 17.5465 5.31682C18.2035 5.66849 18.465 6.25011 18.3731 6.9467C18.2883 7.60947 17.8644 8.03554 17.2003 8.23843C17.165 8.25195 17.1367 8.26548 17.1085 8.279C17.0166 8.28577 16.9177 8.29253 16.8259 8.29929C16.7199 8.33311 16.628 8.32634 16.5362 8.32634ZM14.1411 11.9919C14.1482 11.2209 13.5335 10.619 12.7351 10.6122C11.9509 10.6055 11.3151 11.2074 11.3151 11.9513C11.308 12.702 11.9297 13.3242 12.6928 13.331C13.5052 13.331 14.134 12.7561 14.1411 11.9919ZM8.9977 17.8486C9.57704 17.8554 10.0857 17.4023 10.0999 16.8748C10.1069 16.3675 9.56998 15.8333 9.04716 15.8265C8.51727 15.8197 7.99445 16.2999 7.98739 16.8139C7.97326 17.3887 8.41836 17.8486 8.9977 17.8486ZM17.6666 6.75057C17.6737 6.23658 17.278 5.83757 16.7552 5.82404C16.2465 5.81052 15.7873 6.24335 15.7731 6.73704C15.759 7.19693 16.2183 7.62976 16.7269 7.63652C17.2498 7.65005 17.6595 7.25779 17.6666 6.75057ZM15.6106 17.2873C15.6106 17.7134 15.9427 18.0447 16.3737 18.0515C16.8047 18.065 17.1791 17.6931 17.172 17.2738C17.165 16.895 16.7693 16.5231 16.3666 16.5163C15.9568 16.5096 15.6036 16.8612 15.6106 17.2873ZM7.06186 8.32634C7.06186 8.69155 7.29501 8.92149 7.66946 8.92149C8.03684 8.92149 8.26293 8.69831 8.26293 8.31958C8.26293 8.00848 7.99445 7.7312 7.67652 7.72444C7.35859 7.71768 7.06186 8.00172 7.06186 8.32634ZM16.7411 12.7358C16.7481 13.0537 17.0095 13.3174 17.3416 13.3174C17.6595 13.3242 17.9845 13.0266 17.9845 12.7223C17.9916 12.4179 17.6313 12.1001 17.3063 12.1136C17.0166 12.1271 16.7411 12.4247 16.7411 12.7358Z" fill="#F99B1E"/>
<path d="M14.4941 15.3467C14.6778 15.4955 14.7767 15.7051 14.9039 15.8945C14.4164 15.9486 14.5789 15.5631 14.4941 15.3467Z" fill="#FDD59B"/>
<path d="M12.2969 14.001C12.5583 14.001 12.8126 14.001 13.074 14.001C12.8762 14.19 12.4876 14.19 12.2969 14.001Z" fill="#FDD59B"/>
<path d="M13.3567 13.9395C13.6464 13.9665 13.71 14.1897 13.7947 14.3993C13.4697 14.3926 13.4627 14.122 13.3567 13.9395Z" fill="#FDD59B"/>
<path d="M16.0344 18.7217C16.2464 18.7217 16.4583 18.7217 16.6773 18.7217C16.5007 18.9309 16.211 18.9309 16.0344 18.7217Z" fill="#FDD59B"/>
<path d="M14.0632 14.7373C14.2045 14.8455 14.3034 14.9808 14.3458 15.1431C14.042 15.1431 14.1056 14.9064 14.0632 14.7373Z" fill="#FDD59B"/>
<path d="M13.7876 14.3936C13.9501 14.4543 14.0137 14.5893 14.0631 14.7379C13.8441 14.7176 13.8088 14.5623 13.7876 14.3936Z" fill="#FDD59B"/>
<path d="M14.8827 17.1729C14.8827 17.2606 14.8827 17.3551 14.8827 17.4429C14.7061 17.3551 14.7061 17.2674 14.8827 17.1729Z" fill="#FDD59B"/>
<path d="M17.4473 18.3214C17.5179 18.2472 17.5886 18.1729 17.6592 18.0986C17.6804 18.2607 17.6239 18.3417 17.4473 18.3214Z" fill="#FDD59B"/>
<path d="M15.2643 18.3086C15.3561 18.3288 15.4338 18.3694 15.4691 18.4571C15.3632 18.4639 15.2572 18.4571 15.2643 18.3086Z" fill="#FDD59B"/>
<path d="M14.9181 15.9414C15.0029 15.9886 15.0594 16.0561 15.0594 16.1574C14.8969 16.1506 14.911 16.0426 14.9181 15.9414Z" fill="#FDD59B"/>
<path d="M15.0593 18.0459C15.1158 18.0796 15.1724 18.1201 15.1865 18.1876C15.1088 18.1741 14.9392 18.2281 15.0593 18.0459Z" fill="#FDD59B"/>
<path d="M11.7954 13.9946C11.8449 13.9068 11.8943 13.8191 12.0144 13.9203C11.965 14.0081 11.8802 13.9946 11.7954 13.9946Z" fill="#FDD59B"/>
<path d="M16.9458 18.6475C16.9953 18.6205 17.0447 18.6002 17.0871 18.5732C17.0871 18.6677 17.08 18.7757 16.9458 18.6475Z" fill="#FDD59B"/>
<path d="M15.688 18.5869C15.7445 18.5937 15.801 18.6072 15.8293 18.6544C15.7162 18.7691 15.7021 18.6814 15.688 18.5869Z" fill="#FDD59B"/>
<path d="M14.9745 16.6992C14.9815 16.76 14.9674 16.8072 14.9109 16.841C14.8049 16.7397 14.8756 16.7195 14.9745 16.6992Z" fill="#FDD59B"/>
<path d="M15.1299 16.334C15.1723 16.3745 15.1793 16.4082 15.1228 16.442C15.1228 16.4015 15.1299 16.3677 15.1299 16.334Z" fill="#FDD59B"/>
<path d="M15.0522 16.1582C15.0734 16.1853 15.1017 16.2055 15.1229 16.2326C15.1017 16.2055 15.0734 16.1785 15.0522 16.1582Z" fill="#FDD59B"/>
<path d="M5.64862 7.94141C5.76166 7.94815 5.78285 8.02239 5.78992 8.10336C5.79698 8.20459 5.81111 8.32606 5.67688 8.35305C5.57091 8.37329 5.54972 8.26532 5.52853 8.19109C5.50733 8.08987 5.54972 8.00214 5.64862 7.94141Z" fill="#FDCA9F"/>
<path d="M11.3291 2.19287C11.5269 2.07812 11.64 2.08487 11.7813 2.14562C11.6682 2.28736 11.5411 2.22661 11.3291 2.19287Z" fill="#FDD59B"/>
<path d="M14.4518 5.4866C14.4588 5.56084 14.4447 5.59458 14.3811 5.59458C14.3105 5.59458 14.2822 5.55409 14.2751 5.4866C14.2751 5.42585 14.2822 5.35836 14.3529 5.37186C14.4023 5.38536 14.4306 5.4596 14.4518 5.4866Z" fill="#FDD59B"/>
<path d="M15.6952 5.4792C15.6245 5.58045 15.5327 5.66145 15.4197 5.71544C15.3985 5.51295 15.5186 5.47245 15.6952 5.4792Z" fill="#FDD59B"/>
<path d="M16.8186 8.33275C16.9104 8.326 17.0094 8.31925 17.1012 8.3125C17.0235 8.50823 16.9246 8.50823 16.8186 8.33275Z" fill="#FDD59B"/>
<path d="M14.1408 11.9929C14.1337 12.7639 13.512 13.332 12.6854 13.332C11.9223 13.3253 11.3006 12.7031 11.3077 11.9524C11.3147 11.2084 11.9506 10.6133 12.7278 10.6133C13.5332 10.6133 14.1479 11.2152 14.1408 11.9929Z" fill="#FDD59B"/>
<path d="M8.99746 17.8492C8.41812 17.8425 7.97301 17.3894 7.98714 16.8145C8.00127 16.3073 8.51703 15.8271 9.04692 15.8271C9.56268 15.8271 10.1067 16.3682 10.0996 16.8754C10.0926 17.4029 9.57681 17.856 8.99746 17.8492Z" fill="#FDCA9F"/>
<path d="M17.6665 6.75011C17.6594 7.25735 17.2497 7.64285 16.7268 7.63609C16.2252 7.62932 15.766 7.19648 15.773 6.73658C15.7872 6.24287 16.2464 5.81002 16.7551 5.82355C17.2779 5.83708 17.6736 6.23611 17.6665 6.75011Z" fill="#FDDF99"/>
<path d="M15.6106 17.2887C15.6106 16.8626 15.9568 16.5109 16.3666 16.5177C16.7693 16.5244 17.1649 16.8964 17.172 17.2751C17.1791 17.7012 16.8046 18.0664 16.3736 18.0529C15.9427 18.0394 15.6106 17.708 15.6106 17.2887Z" fill="#FDD59B"/>
<path d="M7.06152 8.32565C7.06152 8.00103 7.35119 7.71699 7.67618 7.72375C7.9941 7.73051 8.26257 8.00779 8.26257 8.31889C8.26257 8.69085 8.0365 8.92079 7.66912 8.92079C7.30174 8.92079 7.06859 8.69085 7.06152 8.32565Z" fill="#FDD59B"/>
<path d="M16.7409 12.7368C16.7338 12.4325 17.0093 12.1282 17.3061 12.1147C17.6311 12.1011 17.9914 12.419 17.9843 12.7233C17.9772 13.0276 17.6593 13.3252 17.3414 13.3184C17.0164 13.3116 16.7479 13.0547 16.7409 12.7368Z" fill="#FDD59B"/>
</svg>
