<svg width="141" height="73" viewBox="0 0 141 73" fill="none" xmlns="http://www.w3.org/2000/svg">
<g clip-path="url(#clip0)">
<path d="M45.6455 63.2667C45.6455 60.8928 45.6455 58.5188 45.6455 56.2041C45.6455 55.67 45.4551 54.9578 46.4708 55.0171C49.1372 55.1952 51.7401 54.7204 54.4064 55.3139C58.9139 56.2635 61.4533 59.7651 61.0724 64.4537C60.7549 68.3115 57.3902 71.5163 53.1367 71.7537C50.9782 71.8724 48.8198 71.7537 46.6613 71.8131C45.6455 71.8724 45.582 71.3976 45.582 70.6261C45.6455 68.1334 45.6455 65.7001 45.6455 63.2667ZM49.0737 63.3261C49.0737 63.9789 49.0737 64.6318 49.0737 65.2846C49.0737 68.4895 49.0737 68.4302 52.5019 68.4895C54.8508 68.5489 56.5649 67.5993 57.4537 65.6407C58.406 63.5041 58.2155 61.3676 56.438 59.5277C55.3587 58.4001 50.6608 57.3318 49.5181 58.222C48.4389 59.1123 49.2642 60.6554 49.0737 61.8423C49.0102 62.3765 49.0737 62.9106 49.0737 63.3261Z" fill="#F2F2F2"/>
<path d="M69.8333 72.1095C66.9765 71.9315 64.6911 71.2786 63.1674 69.142C62.723 68.4892 62.4691 67.777 63.4849 67.5396C64.2467 67.3615 64.8815 65.6997 65.9608 67.3022C67.04 68.9046 68.8176 69.0827 70.6587 68.8453C71.484 68.7266 72.2458 68.3111 72.3727 67.4209C72.5632 66.4713 72.0553 65.8184 71.103 65.4624C70.0238 65.0469 68.8811 64.6908 67.7383 64.3347C63.7388 63.029 62.2786 60.7144 63.6118 57.7469C64.7545 55.0762 68.8811 53.8892 72.0553 55.3729C72.8171 55.729 73.5155 56.0851 74.0233 56.738C74.4677 57.3315 75.674 57.925 74.7852 58.6372C74.0234 59.29 72.8806 60.7144 71.6109 58.9339C71.357 58.5185 70.7221 58.2217 70.2143 58.103C68.8811 57.8063 67.3574 57.6282 66.7861 59.1119C66.1512 60.5957 67.4844 61.1892 68.7541 61.6046C70.0238 62.0201 71.23 62.3762 72.4997 62.851C75.1026 63.8599 76.0549 65.3436 75.8009 67.777C75.6105 69.7355 74.0234 71.338 71.6744 71.8128C70.9761 71.8721 70.2777 72.2282 69.8333 72.1095Z" fill="#F2F2F2"/>
<path d="M29.2665 72.0502C27.108 71.9315 24.8225 71.2787 23.3624 69.1421C22.918 68.4893 22.5371 67.7771 23.6163 67.4803C24.3781 67.3023 24.9495 65.5811 26.1557 67.1836C27.2349 68.7267 29.3934 69.2608 31.2345 68.6673C31.9963 68.4299 32.5677 68.0145 32.6312 67.1836C32.6947 66.412 32.3772 65.7592 31.5519 65.4624C30.3457 64.9876 29.076 64.6315 27.8063 64.2161C24.5686 63.1478 23.2354 61.6047 23.4259 59.2307C23.6163 56.7974 25.5209 55.0762 28.3777 54.6608C30.7901 54.3047 34.2183 55.8478 35.1706 57.747C35.488 58.3405 35.2341 58.6966 34.7262 58.8153C33.9009 58.9933 33.266 60.5364 32.2503 59.2901C31.3615 58.2218 30.2187 57.747 28.8221 57.8657C27.8698 57.9844 27.108 58.2811 26.9175 59.2901C26.7271 60.1803 27.2349 60.7738 28.0603 61.1299C29.203 61.6047 30.4092 61.9608 31.6154 62.3762C35.2341 63.6226 36.5672 65.2844 35.9959 68.0145C35.488 70.3884 32.9486 72.0502 29.2665 72.0502Z" fill="#F2F2F2"/>
<path d="M8.50672 60.7148C8.44324 64.0977 8.31627 67.54 8.44324 70.8636C8.50672 73.3562 7.364 72.7627 6.0943 72.7627C4.18975 72.7034 1.58687 73.5936 0.507624 72.4066C-0.444649 71.3977 0.253685 69.0237 0.1902 67.2432C0.1902 65.0473 0.253685 62.8514 0.253685 60.7148C3.04702 60.6554 5.77687 61.5457 8.50672 60.7148Z" fill="#F76825"/>
<path d="M0.317383 38.6963C0.317383 35.6101 0.317383 32.5239 0.317383 29.4971C3.04723 29.4971 5.84057 29.4971 8.57042 29.4971C8.57042 32.8206 8.57042 36.1442 8.57042 39.4085C5.77709 39.2898 3.11072 38.2808 0.317383 38.6963Z" fill="#1C93CA"/>
<path d="M8.50694 6.76562C8.50694 10.0892 8.50694 13.3534 8.50694 16.677C7.61816 16.2022 6.72937 16.7957 5.77709 16.5583C3.93603 16.0835 2.15845 15.8461 0.253906 16.3209C0.253906 13.116 0.253906 9.9705 0.253906 6.76562C2.09497 7.83392 4.44391 6.29083 6.22149 7.77457C6.47543 7.95262 6.91982 7.71522 7.23725 7.41847C7.61816 7.12172 7.93558 6.76562 8.50694 6.76562Z" fill="#489D40"/>
<path d="M67.9922 3.68012C67.9922 6.0541 67.9922 8.48744 67.9922 10.8614C67.9922 12.7606 67.9922 14.6598 67.9922 16.559C67.9922 16.9744 68.0557 17.3899 67.3573 17.4492C66.7225 17.4492 66.659 17.0931 66.659 16.6777C66.659 11.633 66.659 6.6476 66.659 1.60288C66.659 1.30614 66.532 0.831339 67.1034 0.771989C67.6113 0.712639 67.9287 0.890688 68.1826 1.24679C70.3411 4.21427 72.6901 7.1224 74.6581 10.2086C75.6739 11.811 77.134 12.9387 78.0228 14.6004C78.7211 14.185 78.4037 13.6508 78.4037 13.2354C78.4037 9.43703 78.4037 5.69801 78.4037 1.89963C78.4037 1.42483 78.0863 0.771989 79.0386 0.771989C79.8639 0.771989 79.6734 1.36548 79.6734 1.78093C79.6734 6.70695 79.6734 11.5736 79.6734 16.4996C79.6734 16.8557 79.9273 17.3899 79.229 17.4492C78.5307 17.5679 78.2767 17.0338 77.8958 16.6183C75.039 12.7606 72.2457 8.90288 69.3888 5.10451C69.0079 4.62971 68.6905 4.15492 68.3096 3.68012C68.3096 3.62077 68.1191 3.68012 67.9922 3.68012Z" fill="#F2F2F2"/>
<path d="M8.50694 60.7145C5.77709 61.5454 3.04724 60.6552 0.253906 60.7145C0.253906 57.8657 0.253906 55.0169 0.253906 52.1682C2.98376 52.2275 5.71361 51.6934 8.50694 52.1682C8.50694 55.0169 8.50694 57.8657 8.50694 60.7145Z" fill="#BD7454"/>
<path d="M101.258 9.73385C101.576 12.1078 100.814 14.1257 98.9092 15.7282C96.3698 17.9241 91.7989 18.3395 88.3707 16.7371C85.133 15.194 83.165 11.9891 83.4189 8.60621C83.6729 4.92654 86.0218 2.01841 89.6404 0.890765C93.3861 -0.236877 97.6395 0.890765 99.7346 3.5615C99.9885 3.85824 100.623 4.15499 99.9885 4.68914C99.3536 5.22328 99.0362 4.80784 98.6553 4.39239C95.735 1.36556 91.545 0.772066 88.1168 2.968C84.8791 4.98589 83.7998 9.25906 85.6409 12.5826C87.4185 15.8469 91.8624 17.3306 95.735 16.0249C98.2744 15.194 99.4806 13.4135 99.9885 11.0989C101.322 11.1582 101.258 10.446 101.258 9.73385Z" fill="#F2F2F2"/>
<path d="M36.377 36.0253C36.377 31.218 40.567 27.3603 45.7092 27.4196C50.788 27.479 54.8511 31.2773 54.8511 36.0253C54.8511 40.4172 50.2801 44.8684 45.4553 44.6904C40.186 44.5123 36.5674 41.1887 36.377 36.0253ZM53.3909 34.4229C52.4386 31.5147 50.5976 29.4375 47.2964 28.7847C43.5507 28.0725 40.6939 29.4375 38.2815 33.0578C38.091 33.1172 37.6467 33.2359 37.6467 33.2952C37.5832 35.0757 36.8213 36.9749 38.1545 38.6367C39.5512 42.7318 43.2333 43.9188 47.6138 43.0286C50.8515 42.3757 52.6926 40.2391 53.4544 37.2717C54.5336 36.3221 54.5971 35.3725 53.3909 34.4229Z" fill="#F2F2F2"/>
<path d="M52.0578 17.7452C48.5662 17.5672 46.4712 16.855 45.2015 14.8371C44.9475 14.4216 44.3762 13.9469 45.2015 13.4721C46.0903 12.9379 46.0903 13.7688 46.3442 14.1842C47.8678 16.3208 51.4865 17.2111 53.9624 15.9647C56.2479 14.7777 56.3748 12.107 54.2163 10.8013C52.6292 9.85173 50.7882 9.55498 49.1375 8.96148C46.4077 7.95254 45.2015 6.4688 45.5189 4.39157C45.8363 2.31433 47.5504 0.88994 50.0898 0.533842C52.6292 0.237094 55.613 1.60213 56.3748 3.38262C56.5653 3.79807 56.5653 4.03547 56.1844 4.27287C55.6765 4.62896 55.4225 4.27287 55.1686 3.91677C53.8354 1.95823 51.9309 1.36474 49.5819 1.89888C48.1218 2.25498 47.1695 3.08587 46.9791 4.56961C46.7886 6.05335 47.6139 6.9436 48.9471 7.47775C50.3438 8.01189 51.8039 8.42734 53.2006 8.96148C56.4383 10.1485 57.6445 11.6916 57.1366 14.0062C56.5018 16.3802 54.1528 17.8046 52.0578 17.7452Z" fill="#F2F2F2"/>
<path d="M8.50694 52.1687C5.77709 51.6939 3.04724 52.228 0.253906 52.1687C0.253906 49.5573 0.253906 46.9459 0.253906 44.3345C2.03148 44.2752 3.74558 44.6313 5.52315 44.3345C6.6024 44.1565 7.61816 44.4532 8.50694 45.0467C8.50694 47.4207 8.50694 49.7947 8.50694 52.1687Z" fill="#748289"/>
<path d="M41.8364 63.3258C41.8364 65.7592 41.7729 68.1925 41.8364 70.5665C41.8999 71.9909 40.8841 71.6348 40.0588 71.6348C39.2335 71.6348 38.2812 71.9909 38.2812 70.5665C38.3447 65.6998 38.3447 60.8925 38.2812 56.0258C38.2812 54.6014 39.2335 54.9575 39.9953 54.9575C40.8206 54.9575 41.8364 54.6014 41.7729 56.0258C41.7729 58.5185 41.8364 60.9518 41.8364 63.3258Z" fill="#F2F2F2"/>
<path d="M0.317383 16.3213C2.15845 15.8465 3.99951 16.0839 5.84057 16.5587C6.72936 16.7961 7.68163 16.2026 8.57042 16.6774C8.57042 19.0514 8.57042 21.4254 8.57042 23.7994C5.84057 23.9181 3.11072 24.0368 0.317383 23.7994C0.317383 21.3067 0.317383 18.814 0.317383 16.3213Z" fill="#309A7B"/>
<path d="M8.50695 6.76585C7.93559 6.76585 7.61816 7.12195 7.23725 7.47805C6.91983 7.71545 6.47544 8.01219 6.2215 7.83415C4.44392 6.35041 2.09498 7.8935 0.253915 6.8252C0.253915 4.92602 0.253915 3.08618 0.19043 1.18699C0.19043 0.296748 0.444369 0 1.39664 0C3.42816 0.0593496 5.45968 0.0593496 7.42771 0C8.3165 0 8.63392 0.296748 8.63392 1.12764C8.50695 3.02683 8.57044 4.86667 8.50695 6.76585Z" fill="#5A9E1E"/>
<path d="M25.6477 10.6236C25.0763 12.5228 25.5842 14.422 25.3937 16.3212C25.3302 16.8553 25.5842 17.6269 24.5049 17.3301C24.5049 12.5228 24.5049 7.71551 24.5049 2.9082C24.5049 2.25535 24.6954 1.6025 24.1875 1.06836C27.2983 0.534212 30.4725 0.237464 33.5198 1.30576C35.2974 1.89925 36.3131 3.44234 36.3766 5.34153C36.4401 7.18137 35.8687 8.60576 34.0277 9.55535C33.5833 9.79275 31.9327 9.79275 32.8849 11.1578C32.2501 12.4041 31.9327 10.6236 31.4248 11.0391C31.2978 10.9204 31.1074 10.8017 30.9804 10.6236C30.8534 10.3862 30.7264 10.3269 30.5995 10.5643C29.8377 10.5643 29.1393 10.5643 28.3775 10.5643C28.1871 10.3269 28.0601 10.3269 27.8696 10.5643C27.2983 10.5643 26.6634 10.5643 26.092 10.5643C25.9016 10.3269 25.7746 10.3269 25.6477 10.6236ZM30.536 9.3773C30.8534 9.6147 31.1074 9.6147 31.4248 9.3773C33.8372 8.9025 35.2974 7.30007 35.1069 5.40088C34.9164 3.32364 33.2024 1.89925 30.7264 1.89925C29.3933 1.89925 28.0601 1.9586 26.7269 1.89925C25.5842 1.8399 25.3302 2.25535 25.3937 3.20494C25.4572 5.22283 25.4572 7.18137 25.4572 9.19925C25.5207 9.67405 25.7746 9.6147 26.092 9.43665C27.6157 9.3773 29.0758 9.3773 30.536 9.3773Z" fill="#F2F2F2"/>
<path d="M0.253906 23.7998C2.98376 24.0372 5.71361 23.9185 8.50694 23.7998C8.50694 25.699 8.50694 27.5982 8.50694 29.4974C5.77709 29.4974 2.98376 29.4974 0.253906 29.4974C0.253906 27.5982 0.253906 25.699 0.253906 23.7998Z" fill="#1C99AA"/>
<path d="M8.50694 45.105C7.61816 44.5116 6.6024 44.2742 5.52315 44.3929C3.74558 44.6303 2.03148 44.3335 0.253906 44.3929C0.253906 42.4937 0.253906 40.5945 0.253906 38.6953C3.04724 38.2798 5.71361 39.3481 8.50694 39.4075C8.50694 41.3067 8.50694 43.2059 8.50694 45.105Z" fill="#498AA8"/>
<path d="M68.6907 28.666C71.8649 30.862 71.8014 34.8977 68.4367 36.7376C67.2305 37.3904 67.294 37.8652 67.9288 38.8148C69.1351 40.5359 70.2143 42.3164 71.357 44.1563C70.4048 44.7498 69.8969 44.3343 69.4525 43.6221C68.5002 42.0197 67.421 40.4766 66.5322 38.8742C66.0243 37.9246 65.326 37.5685 64.1832 37.5685C59.9932 37.6278 60.0567 37.5685 59.9932 41.5449C59.9932 42.4945 60.6281 43.5628 59.4854 44.3343C59.4854 41.4855 59.4854 38.6961 59.4854 35.8473C59.6123 35.8473 59.7393 35.8473 59.8663 35.8473C59.9297 35.9067 59.9932 36.0254 59.9297 36.0847C59.9297 36.2628 59.9297 36.5002 60.2472 36.3221C61.7708 36.3221 63.2944 36.3815 64.8816 36.3815C65.1355 36.6189 65.326 36.6189 65.5799 36.3815C69.0716 35.8473 70.2143 34.1262 69.389 30.9213C69.6429 30.862 69.8969 30.862 69.9604 30.5652C69.9604 30.5059 69.8334 30.3278 69.7699 30.3278C69.4525 30.3278 69.4525 30.6246 69.389 30.862C69.0081 30.3872 68.5637 29.9717 68.1828 29.4969C68.5002 29.3189 68.6272 29.0221 68.6907 28.666Z" fill="#F2F2F2"/>
<path d="M113.067 12.7607C113.765 15.1347 114.971 16.1436 117.384 16.381C120.367 16.6778 121.954 15.8469 123.288 13.1762C124.176 13.0575 124.049 12.3453 124.049 11.8111C124.049 8.66559 124.049 5.52006 124.049 2.37453C124.049 1.84039 124.176 1.30624 123.415 1.06884C123.986 0.534696 124.748 0.356647 124.748 1.36559C124.748 5.34201 125.129 9.25908 124.494 13.2355C124.049 16.0249 121.447 17.7461 118.145 17.7461C114.781 17.7461 112.432 16.0843 111.797 13.2949C111.733 9.25908 112.051 5.16396 111.606 1.12819C112.051 0.594045 112.495 0.534696 112.94 1.12819C112.432 3.02738 112.749 4.98591 112.749 6.8851C112.813 8.78429 112.432 10.8022 113.067 12.7607Z" fill="#F2F2F2"/>
<path d="M139.286 9.55535C137.635 11.2765 135.477 11.0391 133.318 11.0391C130.652 11.0391 130.652 11.0391 130.652 13.5318C130.652 14.4814 130.652 15.431 130.652 16.3806C130.652 16.796 130.906 17.3895 130.017 17.3895C129.192 17.3895 129.382 16.8554 129.382 16.4399C129.382 14.1846 129.382 11.9887 129.382 9.7334C129.382 6.82527 129.446 3.97649 129.446 1.06836C130.144 1.12771 130.271 1.7212 130.525 2.13665C130.525 3.44234 130.588 4.74803 130.588 6.05373C130.588 10.0301 130.588 10.0301 134.905 9.91145C137.635 9.8521 138.842 8.96186 139.603 6.40982C140.873 7.59682 138.842 8.42771 139.286 9.55535Z" fill="#F2F2F2"/>
<path d="M24.5688 27.7159C27.3622 27.7159 30.092 27.6565 32.8854 27.6565C33.3298 27.6565 33.9646 27.4191 34.0281 28.1907C34.0281 28.9622 33.3933 28.7842 32.9489 28.7842C30.7904 28.7842 28.6319 28.8435 26.5369 28.7842C25.6481 28.7842 25.3307 28.9029 25.4576 29.8525C25.5846 31.3362 25.5846 32.8199 25.4576 34.2443C25.3942 35.1346 25.7116 35.4907 26.7273 35.4313C28.3779 35.372 30.0286 35.3126 31.6792 35.4313C32.3775 35.4907 33.7107 34.8378 33.7107 35.9061C33.7107 37.0931 32.314 36.4403 31.6157 36.4996C29.9651 36.6183 28.3145 36.559 26.6638 36.4996C25.7116 36.4403 25.4576 36.7964 25.5211 37.6273C25.5846 39.4671 25.5211 41.3069 25.5211 43.0874C25.5211 43.6216 25.7751 44.3931 24.6323 44.1557C24.5688 38.8142 24.5688 33.2354 24.5688 27.7159Z" fill="#F2F2F2"/>
<path d="M41.392 9.08076C41.392 11.5141 41.392 13.8881 41.392 16.3214C41.392 16.7369 41.646 17.3304 40.8206 17.3897C39.8684 17.4491 40.1223 16.7369 40.1223 16.2621C40.1223 11.4547 40.1223 6.58808 40.1223 1.78076C40.1223 1.36531 39.8684 0.771818 40.6937 0.712468C41.646 0.653118 41.392 1.36531 41.392 1.84011C41.392 4.21409 41.392 6.64743 41.392 9.08076Z" fill="#F2F2F2"/>
<path d="M61.8979 9.08C61.8979 11.5133 61.8979 13.8873 61.8979 16.3207C61.8979 16.7361 62.1518 17.3296 61.3265 17.3889C60.3742 17.4483 60.6282 16.7361 60.6282 16.3207C60.6282 11.5133 60.6282 6.64667 60.6282 1.83935C60.6282 1.42391 60.3742 0.830411 61.1995 0.771062C62.1518 0.711712 61.8979 1.42391 61.8979 1.8987C61.8979 4.21334 61.8979 6.64667 61.8979 9.08Z" fill="#F2F2F2"/>
<path d="M130.589 2.19634C130.271 1.7809 130.208 1.1874 129.509 1.12805C132.874 -0.23699 138.397 0.831302 140.111 3.14594C139.921 3.73943 140.302 4.51098 139.667 4.98577C139.159 3.73943 138.524 2.55244 137.064 2.19634C134.905 1.6622 132.747 1.60285 130.589 2.19634Z" fill="#F2F2F2"/>
<path d="M59.4856 35.8468C59.4856 38.6956 59.4856 41.485 59.4856 44.3338C58.6603 44.5119 58.7238 43.9777 58.7238 43.5029C58.7238 38.3395 58.7873 33.1761 58.7873 28.0127C59.7395 28.1907 59.3586 28.9029 59.4856 29.4964C59.4856 31.633 59.4856 33.7103 59.4856 35.8468Z" fill="#F2F2F2"/>
<path d="M101.258 9.73339C101.258 10.4456 101.258 11.2171 100.116 11.0391C98.0206 10.4456 95.8621 10.9204 93.7671 10.7423C93.2592 10.683 92.4974 10.9797 92.5609 10.0895C92.5609 9.31794 93.2592 9.61469 93.7036 9.61469C96.243 9.61469 98.7824 9.67404 101.258 9.73339Z" fill="#F2F2F2"/>
<path d="M31.4248 11.039C31.9327 10.6235 32.2501 12.404 32.885 11.1577C34.2181 13.1162 35.5513 15.1341 36.821 17.0926C35.8053 17.8048 35.2974 17.33 34.853 16.6178C33.7103 14.7186 32.5675 12.8788 31.4248 11.039Z" fill="#F2F2F2"/>
<path d="M59.4854 29.4966C59.422 28.9624 59.7394 28.2502 58.7871 28.0128C61.263 27.2413 63.8024 27.7754 66.3418 27.7161C66.5323 27.9535 66.8497 28.0128 67.1671 27.9535C67.2306 29.0811 68.0559 28.6657 68.7542 28.6063C68.6273 28.9624 68.5638 29.2592 68.1829 29.4372C65.707 28.1909 63.0406 28.9031 60.4377 28.725C60.0568 28.725 60.0568 29.1405 59.9298 29.3779C59.7394 29.4966 59.6124 29.4966 59.4854 29.4966Z" fill="#F2F2F2"/>
<path d="M123.415 1.06836C124.176 1.24641 124.049 1.8399 124.049 2.37405C124.049 5.51958 124.049 8.66511 124.049 11.8106C124.049 12.3448 124.24 13.057 123.288 13.1757C123.351 9.1399 123.351 5.10413 123.415 1.06836Z" fill="#F2F2F2"/>
<path d="M24.5689 27.7158C24.5689 33.2353 24.5689 38.7548 24.5689 44.2744C23.9975 44.215 24.188 43.7996 24.188 43.4435C24.188 38.4581 24.188 33.4727 24.188 28.4874C24.1245 28.25 23.934 27.7752 24.5689 27.7158Z" fill="#F2F2F2"/>
<path d="M24.1877 1.06836C24.6956 1.60251 24.5051 2.3147 24.5051 2.9082C24.5051 7.71551 24.5051 12.5228 24.5051 17.3301C24.0607 17.3301 24.1242 16.9741 24.1242 16.6773C24.1242 11.5139 24.1877 6.29112 24.1877 1.06836Z" fill="#F2F2F2"/>
<path d="M139.667 4.98534C140.302 4.4512 139.921 3.739 140.111 3.14551C141.572 5.46014 141.318 7.65608 139.286 9.61461C138.905 8.48697 140.873 7.65608 139.667 6.46908C139.667 5.93494 139.667 5.46014 139.667 4.98534Z" fill="#F2F2F2"/>
<path d="M113.066 12.7602C112.432 10.8017 112.813 8.78381 112.813 6.82527C112.813 4.92608 112.495 2.96755 113.003 1.06836C113.257 4.98543 113.13 8.84316 113.066 12.7602Z" fill="#F2F2F2"/>
<path d="M68.6907 28.6657C68.0558 28.7251 67.2305 29.0812 67.1035 28.0129C67.8019 27.9535 68.3097 28.1909 68.6907 28.6657Z" fill="#F2F2F2"/>
<path d="M67.1671 28.0135C66.8497 28.0728 66.5323 28.0135 66.3418 27.7761C66.6592 27.6574 66.9132 27.7167 67.1671 28.0135Z" fill="#F2F2F2"/>
<path d="M27.8696 10.5638C28.0601 10.3264 28.1871 10.3264 28.3775 10.5638C28.2505 10.5638 28.0601 10.5638 27.8696 10.5638Z" fill="#F2F2F2"/>
<path d="M25.6479 10.6232C25.7749 10.3264 25.9019 10.3264 26.0923 10.5638C25.9654 10.6232 25.8384 10.6232 25.6479 10.6232Z" fill="#F2F2F2"/>
<path d="M30.5996 10.5642C30.7901 10.3268 30.917 10.3862 30.9805 10.6236C30.8535 10.6236 30.7266 10.5642 30.5996 10.5642Z" fill="#F2F2F2"/>
<path d="M38.2813 33.0576C37.6465 34.8975 37.6465 36.7966 38.1543 38.6365C36.8211 36.9747 37.5195 35.0755 37.6465 33.295C37.6465 33.2357 38.0274 33.1763 38.2813 33.0576Z" fill="#F2F2F2"/>
<path d="M53.4541 37.3312C53.4541 36.3816 53.4541 35.432 53.3906 34.4824C54.5969 35.3727 54.5334 36.3223 53.4541 37.3312Z" fill="#F2F2F2"/>
<path d="M25.4575 9.13965C25.648 9.199 25.9019 9.25835 26.0924 9.37705C25.7749 9.5551 25.521 9.61445 25.4575 9.13965Z" fill="#F2F2F2"/>
<path d="M30.5361 9.37695C30.8536 9.37695 31.1075 9.37695 31.4249 9.37695C31.171 9.61435 30.8536 9.61435 30.5361 9.37695Z" fill="#F2F2F2"/>
<path d="M59.8663 29.4971C60.0567 31.6337 60.0567 33.7702 59.8663 35.9068C59.7393 35.9068 59.6123 35.9068 59.4854 35.9068C59.4854 33.7702 59.4854 31.693 59.4854 29.5564C59.6123 29.4971 59.7393 29.4971 59.8663 29.4971Z" fill="#F2F2F2"/>
<path d="M69.3257 30.8623C69.3892 30.6249 69.3892 30.3875 69.7066 30.3281C69.7701 30.3281 69.897 30.4468 69.897 30.5655C69.897 30.8623 69.5796 30.8623 69.3257 30.8623C69.3892 30.9216 69.3257 30.8623 69.3257 30.8623Z" fill="#F2F2F2"/>
<path d="M64.8179 36.3809C65.0718 36.3809 65.2623 36.3809 65.5162 36.3809C65.3257 36.6183 65.0718 36.6183 64.8179 36.3809Z" fill="#F2F2F2"/>
<path d="M59.9297 36.085C60.0567 36.1443 60.1201 36.263 60.2471 36.3224C59.9297 36.5004 59.9297 36.3224 59.9297 36.085Z" fill="#F2F2F2"/>
</g>
<defs>
<clipPath id="clip0">
<rect width="141" height="73" fill="white"/>
</clipPath>
</defs>
</svg>
